<svg width="20" height="24" viewBox="0 0 17 18" fill="none" xmlns="http://www.w3.org/2000/svg">
<path d="M4.25195 5.29406C4.25195 5.15365 4.30792 5.01899 4.40753 4.91971C4.50715 4.82043 4.64226 4.76465 4.78314 4.76465H7.97023C8.11111 4.76465 8.24622 4.82043 8.34584 4.91971C8.44545 5.01899 8.50142 5.15365 8.50142 5.29406C8.50142 5.43447 8.44545 5.56913 8.34584 5.66841C8.24622 5.76769 8.11111 5.82347 7.97023 5.82347H4.78314C4.64226 5.82347 4.50715 5.76769 4.40753 5.66841C4.30792 5.56913 4.25195 5.43447 4.25195 5.29406Z" fill="#FFCF24"/>
<path d="M4.78314 6.88281C4.64226 6.88281 4.50715 6.93859 4.40753 7.03787C4.30792 7.13716 4.25195 7.27182 4.25195 7.41222C4.25195 7.55263 4.30792 7.68729 4.40753 7.78658C4.50715 7.88586 4.64226 7.94164 4.78314 7.94164H6.90787C7.04875 7.94164 7.18386 7.88586 7.28347 7.78658C7.38309 7.68729 7.43905 7.55263 7.43905 7.41222C7.43905 7.27182 7.38309 7.13716 7.28347 7.03787C7.18386 6.93859 7.04875 6.88281 6.90787 6.88281H4.78314Z" fill="#FFCF24"/>
<path d="M6.37634 3.60109e-07C5.27047 -0.000370695 4.18353 0.286014 3.22232 0.831016C2.2611 1.37602 1.45869 2.16088 0.893924 3.10849C0.329156 4.05611 0.0214647 5.13386 0.00108294 6.23585C-0.0192988 7.33785 0.24833 8.42617 0.777673 9.39388L0.0233934 12.0304C-0.00314738 12.1229 -0.00385447 12.221 0.0213484 12.3139C0.0465512 12.4069 0.0967097 12.4912 0.166425 12.5579C0.236141 12.6245 0.322774 12.6709 0.417001 12.6922C0.511227 12.7134 0.60948 12.7086 0.701183 12.6784L3.18499 11.8535C4.03155 12.3411 4.9793 12.628 5.95492 12.6921C6.93054 12.7562 7.90787 12.5958 8.81132 12.2232C9.71477 11.8506 10.5201 11.2759 11.1651 10.5435C11.81 9.81105 12.2772 8.94059 12.5306 7.99941C12.784 7.05823 12.8168 6.07156 12.6264 5.11574C12.436 4.15992 12.0275 3.26057 11.4325 2.48726C10.8376 1.71395 10.0722 1.08742 9.19539 0.656118C8.31864 0.224821 7.35408 0.000326064 6.37634 3.60109e-07V3.60109e-07ZM1.06451 6.35294C1.06469 5.17829 1.45683 4.03705 2.1792 3.10889C2.90157 2.18074 3.91314 1.51838 5.05466 1.22611C6.19617 0.933831 7.40281 1.02823 8.48459 1.49445C9.56637 1.96066 10.4619 2.77221 11.0301 3.80134C11.5983 4.83046 11.807 6.0187 11.6232 7.179C11.4395 8.33929 10.8738 9.40574 10.0152 10.2104C9.15665 11.0151 8.05392 11.5124 6.88066 11.6239C5.7074 11.7355 4.53024 11.4549 3.53451 10.8265C3.46791 10.7844 3.39274 10.7576 3.31446 10.7481C3.23618 10.7386 3.15675 10.7465 3.08195 10.7714L1.32054 11.3569L1.86235 9.47118C1.88209 9.40173 1.88737 9.32899 1.87787 9.25743C1.86837 9.18587 1.84429 9.117 1.80711 9.05506C1.31933 8.2377 1.06272 7.30395 1.06451 6.35294Z" fill="#FFCF24"/>
<path d="M10.9195 14.7675L8.36769 13.4969C8.83513 13.3667 9.28452 13.1931 9.70946 12.9802L11.1575 13.7023L15.9381 11.32V10.5884C15.9381 10.3075 15.8262 10.0382 15.627 9.83965C15.4277 9.64108 15.1575 9.52953 14.8757 9.52953H13.0973C13.2599 9.1907 13.3959 8.836 13.5053 8.4707H14.8757C15.4393 8.4707 15.9797 8.69381 16.3782 9.09095C16.7766 9.48808 17.0005 10.0267 17.0005 10.5884V15.8825C17.0005 16.4441 16.7766 16.9827 16.3782 17.3799C15.9797 17.777 15.4393 18.0001 14.8757 18.0001H7.43919C6.87567 18.0001 6.33524 17.777 5.93677 17.3799C5.53831 16.9827 5.31445 16.4441 5.31445 15.8825V13.6907C5.66185 13.7394 6.01561 13.7648 6.37682 13.7648V15.8825C6.37682 16.1633 6.48875 16.4326 6.68798 16.6312C6.88721 16.8297 7.15743 16.9413 7.43919 16.9413H14.8757C15.1575 16.9413 15.4277 16.8297 15.627 16.6312C15.8262 16.4326 15.9381 16.1633 15.9381 15.8825V12.5038L11.3954 14.7675C11.3216 14.8044 11.2401 14.8236 11.1575 14.8236C11.0748 14.8236 10.9934 14.8044 10.9195 14.7675V14.7675Z" fill="#FFCF24"/>
</svg>
