<svg width="40" height="40" viewBox="0 0 40 40" fill="none" xmlns="http://www.w3.org/2000/svg"><path d="M19.9998 37.7782C17.0529 37.7782 14.2268 36.6076 12.143 34.5238C10.0593 32.4401 8.88867 29.614 8.88867 26.6671V13.3338C8.88867 10.3869 10.0593 7.56076 12.143 5.47703C14.2268 3.39329 17.0529 2.22266 19.9998 2.22266C22.9466 2.22266 25.7728 3.39329 27.8565 5.47703C29.9403 7.56076 31.1109 10.3869 31.1109 13.3338V26.6671C31.1109 28.1262 30.8235 29.5711 30.2651 30.9191C29.7067 32.2672 28.8883 33.4921 27.8565 34.5238C26.8248 35.5556 25.5999 36.374 24.2518 36.9324C22.9038 37.4908 21.4589 37.7782 19.9998 37.7782ZM19.9998 4.44488C17.6423 4.44488 15.3814 5.38138 13.7144 7.04837C12.0474 8.71536 11.1109 10.9763 11.1109 13.3338V26.6671C11.1109 29.0246 12.0474 31.2855 13.7144 32.9525C15.3814 34.6195 17.6423 35.556 19.9998 35.556C22.3573 35.556 24.6182 34.6195 26.2852 32.9525C27.9522 31.2855 28.8887 29.0246 28.8887 26.6671V13.3338C28.8887 10.9763 27.9522 8.71536 26.2852 7.04837C24.6182 5.38138 22.3573 4.44488 19.9998 4.44488Z" fill="white"/><path d="M19.9998 16.6667C19.7051 16.6667 19.4225 16.5496 19.2141 16.3412C19.0057 16.1329 18.8887 15.8502 18.8887 15.5556V11.1111C18.8887 10.8164 19.0057 10.5338 19.2141 10.3254C19.4225 10.1171 19.7051 10 19.9998 10C20.2945 10 20.5771 10.1171 20.7855 10.3254C20.9938 10.5338 21.1109 10.8164 21.1109 11.1111V15.5556C21.1109 15.8502 20.9938 16.1329 20.7855 16.3412C20.5771 16.5496 20.2945 16.6667 19.9998 16.6667Z" fill="white"/></svg>
