<svg width="18" height="18" viewBox="0 0 18 18" fill="none" xmlns="http://www.w3.org/2000/svg">
<path d="M0.941406 2.77778C0.941406 2.30628 1.12871 1.8541 1.46211 1.5207C1.7955 1.1873 2.24769 1 2.71918 1H5.63474C5.82122 1.00014 6.00294 1.05893 6.15417 1.16804C6.3054 1.27716 6.41848 1.43107 6.47741 1.608L7.80896 5.60178C7.87643 5.80475 7.86845 6.02524 7.78649 6.2228C7.70453 6.42036 7.55408 6.58174 7.36274 6.67733L5.35652 7.68178C6.33991 9.85826 8.08315 11.6015 10.2596 12.5849L11.2641 10.5787C11.3597 10.3873 11.5211 10.2369 11.7186 10.1549C11.9162 10.073 12.1367 10.065 12.3396 10.1324L16.3334 11.464C16.5105 11.523 16.6645 11.6362 16.7736 11.7876C16.8827 11.939 16.9415 12.1209 16.9414 12.3076V15.2222C16.9414 15.6937 16.7541 16.1459 16.4207 16.4793C16.0873 16.8127 15.6351 17 15.1636 17H14.2747C6.91118 17 0.941406 11.0302 0.941406 3.66667V2.77778Z" stroke="#FFCF24" stroke-width="1.5" stroke-linecap="round" stroke-linejoin="round"/>
</svg>
