<svg width="105" height="105" viewBox="0 0 105 105" fill="none" xmlns="http://www.w3.org/2000/svg">
<path d="M19.9563 29.968H15.5577V26.1091H24.1795V23.5859H15.5577H12.9131V39.966H19.7809C23.3699 39.966 25.3803 38.0366 25.3803 34.9333C25.3803 31.803 23.5453 29.968 19.9563 29.968ZM19.6864 37.4294H15.5577V32.4101H19.8348C21.8722 32.4101 22.6818 33.3411 22.6818 34.9063C22.6818 36.4579 21.7238 37.4294 19.6864 37.4294ZM39.9929 39.966H42.7994L36.4578 23.5859H33.0981L26.7566 39.966H29.563L31.2226 35.5674H38.3333L39.9929 39.966ZM32.1806 33.0578L34.7847 26.2035L37.3753 33.0578H32.1806ZM59.8541 37.4294V23.5859H49.6806L47.8726 34.7174C47.6162 36.2421 47.3329 37.0381 46.8472 37.4294H44.5264V43.2987H47.171V39.966H59.5438V43.2987H62.1883V37.4294H59.8541ZM50.4767 34.9603L51.8934 26.1091H57.2095V37.4294H49.7751C50.0719 36.8762 50.2878 36.0802 50.4767 34.9603ZM75.5191 26.1091V23.5859H64.8329V39.966H75.5191V37.4294H67.4775V32.8689H74.9389V30.3458H67.4775V26.1091H75.5191ZM89.4435 23.5859V30.2783H81.0376V23.5859H78.4065V39.966H81.0376V32.8014H89.4435V39.966H92.0881V23.5859H89.4435ZM19.9563 52.7031H15.5577V48.8442H24.1795V46.3211H15.5577H12.9131V62.7012H19.7809C23.3699 62.7012 25.3803 60.7718 25.3803 57.6684C25.3803 54.5381 23.5453 52.7031 19.9563 52.7031ZM19.6864 60.1646H15.5577V55.1453H19.8348C21.8722 55.1453 22.6818 56.0763 22.6818 57.6414C22.6818 59.1931 21.7238 60.1646 19.6864 60.1646ZM39.9929 62.7012H42.7994L36.4578 46.3211H33.0981L26.7566 62.7012H29.563L31.2226 58.3026H38.3333L39.9929 62.7012ZM32.1806 55.793L34.7847 48.9387L37.3753 55.793H32.1806ZM59.8541 60.1646V46.3211H49.6806L47.8726 57.4526C47.6162 58.9772 47.3329 59.7733 46.8472 60.1646H44.5264V66.0339H47.171V62.7012H59.5438V66.0339H62.1883V60.1646H59.8541ZM50.4767 57.6954L51.8934 48.8442H57.2095V60.1646H49.7751C50.0719 59.6114 50.2878 58.8153 50.4767 57.6954ZM75.5191 48.8442V46.3211H64.8329V62.7012H75.5191V60.1646H67.4775V55.6041H74.9389V53.0809H67.4775V48.8442H75.5191ZM89.4435 46.3211V53.0135H81.0376V46.3211H78.4065V62.7012H81.0376V55.5366H89.4435V62.7012H92.0881V46.3211H89.4435Z" fill="white"/>
<path fill-rule="evenodd" clip-rule="evenodd" d="M0.863531 0H0V0.877024V104.123V105H0.863531H104.123H105V104.123V0.877024V0H104.123H0.863531ZM0.863531 104.123V0.877024H104.123V104.123H0.863531Z" fill="white"/>
<path d="M33.3123 76.152H32.0439V75.1131H35.7679V76.152H34.4861V80.0379H33.3123V76.152ZM44.3628 78.095H40.5443C40.6253 78.3108 40.7197 78.4728 40.8142 78.5807C41.084 78.891 41.4348 79.0395 41.8666 79.0395C42.1095 79.0395 42.3389 78.9855 42.5412 78.891C42.6762 78.8236 42.8111 78.7426 42.946 78.6077H44.2413C44.1199 78.918 43.9715 79.1609 43.8096 79.3363C43.5532 79.6061 43.2564 79.822 42.919 79.9704C42.5817 80.1189 42.2309 80.1998 41.8666 80.1998C41.4079 80.1998 40.9761 80.0784 40.5848 79.849C40.18 79.6061 39.8697 79.2958 39.6403 78.891C39.4109 78.4997 39.2895 78.068 39.2895 77.5957C39.2895 77.1235 39.4109 76.6782 39.6403 76.2735C39.8697 75.8687 40.1935 75.5448 40.5848 75.3155C40.9896 75.0726 41.4214 74.9512 41.8936 74.9512C42.3389 74.9512 42.7571 75.0726 43.1484 75.302C43.5397 75.5314 43.85 75.8552 44.0794 76.2465C44.3088 76.6378 44.4302 77.056 44.4302 77.5148C44.4302 77.5957 44.4167 77.7576 44.3763 77.987L44.3628 78.095ZM40.5173 77.0425H43.2294C43.1619 76.8401 43.0675 76.6782 42.946 76.5703C42.6762 76.26 42.3254 76.1115 41.8936 76.1115C41.4483 76.1115 41.0705 76.2735 40.7737 76.6108C40.6793 76.7322 40.5848 76.8806 40.5173 77.0425ZM48.3431 81.684V75.1131H49.436V75.7472C49.5574 75.5853 49.6654 75.4639 49.7463 75.3829C49.8408 75.3155 49.9487 75.2345 50.0837 75.1671C50.3535 75.0321 50.6638 74.9512 51.0416 74.9512C51.379 74.9512 51.7028 75.0186 51.9996 75.1536C52.2965 75.2885 52.5663 75.4639 52.7822 75.7068C53.0116 75.9496 53.187 76.2195 53.3084 76.5433C53.4298 76.8536 53.4973 77.191 53.4973 77.5553C53.4973 78.041 53.3894 78.4863 53.1735 78.891C52.9441 79.2958 52.6473 79.6196 52.2695 79.849C51.8917 80.0784 51.4734 80.1998 51.0146 80.1998C50.7043 80.1998 50.421 80.1324 50.1646 80.0244C49.9622 79.93 49.7463 79.7546 49.5305 79.4982V81.684H48.3431ZM50.9202 76.1115C50.6503 76.1115 50.394 76.179 50.1781 76.3004C49.9487 76.4219 49.7733 76.6108 49.6519 76.8267C49.517 77.056 49.463 77.3124 49.463 77.5822C49.463 77.8521 49.517 78.095 49.6384 78.3243C49.7733 78.5402 49.9352 78.7156 50.1511 78.8506C50.367 78.972 50.6099 79.0395 50.8662 79.0395C51.1361 79.0395 51.379 78.972 51.6083 78.8371C51.8242 78.7156 51.9996 78.5402 52.1345 78.3108C52.256 78.0815 52.3234 77.8386 52.3234 77.5688C52.3234 77.3124 52.256 77.0695 52.1345 76.8401C51.9996 76.6243 51.8377 76.4354 51.6218 76.3139C51.4059 76.179 51.1766 76.1115 50.9202 76.1115ZM57.3427 80.0379V75.1131H59.3126L60.1627 78.2164H60.2301L61.1881 75.1131H62.9692V80.0379H61.7818V76.2735H61.7008L60.527 80.0379H59.7579L58.5975 76.2735H58.5166V80.0379H57.3427ZM68.1908 76.7862H68.8655C69.4726 76.7862 69.9314 76.8941 70.2417 77.11C70.6465 77.4068 70.8489 77.8386 70.8489 78.4053C70.8489 78.972 70.6465 79.4172 70.2417 79.7141C69.9314 79.93 69.4726 80.0379 68.8655 80.0379H67.0439V75.1131H68.1908V76.7862ZM71.4561 80.0379V75.1131H72.6299V80.0379H71.4561ZM68.1908 78.9855H68.717H69.0409C69.1623 78.9855 69.2837 78.945 69.4187 78.891C69.5806 78.7966 69.6615 78.6482 69.6615 78.4188C69.6615 78.2974 69.6345 78.1759 69.5806 78.095C69.5131 78.0005 69.4187 77.9331 69.2972 77.8926C69.1758 77.8656 68.9869 77.8386 68.7305 77.8386H68.1908V78.9855Z" fill="white"/>
<path d="M29.9517 91.5191V84.8672H33.5137V86.0545H31.1795V87.5927H33.4193V88.7801H31.1795V90.3182H33.5137V91.5191H29.9517ZM38.9378 87.6332H37.6695V86.5942H41.3934V87.6332H40.1116V91.5191H38.9378V87.6332ZM45.5087 91.5191V86.5942H46.6961V88.915L48.2747 86.5942H49.6645L47.8969 89.0094L49.9613 91.5191H48.3827L46.6961 89.2118V91.5191H45.5087ZM54.6702 93.1652L55.5743 91.0468L53.7797 86.5942H55.102L56.2354 89.738L57.4227 86.5942H58.7585L55.9386 93.1652H54.6702ZM65.3564 86.5942L67.3534 91.5191H66.0311L64.8842 88.2808L63.7643 91.5191H62.442L64.4254 86.5942H65.3564ZM72.5345 88.2673H73.2092C73.8163 88.2673 74.2751 88.3753 74.5854 88.5912C74.9902 88.888 75.1926 89.3198 75.1926 89.8865C75.1926 90.4666 74.9902 90.8984 74.5854 91.1953C74.2751 91.4111 73.8163 91.5191 73.2227 91.5191H71.3877V86.5942H72.5345V88.2673ZM72.5345 90.4666H73.0608H73.3846C73.506 90.4666 73.6274 90.4262 73.7624 90.3722C73.9243 90.2778 74.0052 90.1293 74.0052 89.9C74.0052 89.7785 73.9783 89.6571 73.9243 89.5761C73.8568 89.4817 73.7624 89.4142 73.6409 89.3737C73.5195 89.3468 73.3306 89.3198 73.0742 89.3198H72.5345V90.4666Z" fill="white"/>
</svg>
