<svg width="220" height="140" viewBox="0 0 220 140" fill="none" xmlns="http://www.w3.org/2000/svg">
<path d="M126.893 13.8853C134.714 2.35761 148.99 -2.84926 169.346 1.55456C184.712 4.87556 191.499 14.2117 203.152 5.59053C197.364 15.7763 191.115 19.7501 173.71 16.9265C154.332 13.7713 142.198 5.61644 126.888 13.8853H126.893Z" fill="#F97C00"/>
<path d="M14.6444 116.541V62.607H15.3667C17.6973 62.607 19.4644 62.7002 19.9101 63.4567C20.5452 64.6483 20.7552 66.1611 20.7552 68.3268V109.256C20.7552 110.339 20.7552 113.044 20.3352 114.126C19.5874 116.199 18.0046 116.396 16.8367 116.396L14.67 116.546L14.6444 116.541ZM0 27.2158V126.975H24.2332C28.3771 126.975 31.558 124.385 33.151 122.126C35.1641 119.313 35.3792 116.282 35.3792 113.686V64.6483C35.3792 61.7314 35.4816 59.4673 33.571 56.4261C29.6474 50.3695 23.7056 50.5871 20.7296 50.5871L14.6444 50.7426V38.9714H34.2267L30.6411 27.2158H0Z" fill="white"/>
<path d="M44.7683 126.975V27.2158H58.8083V75.29L57.9324 83.2324H58.3934L69.1501 27.2158H82.5242V126.975H68.4637V87.745L69.2372 79.1601H68.9042L58.1476 126.975H44.7683Z" fill="white"/>
<path d="M195.582 126.975L203.777 79.0203H204.233L203.552 89.004V126.975H219.267V27.2158H199.91L191.371 84.1701H190.91L182.377 27.2158H163.025V126.975H178.73V89.004L178.048 79.0203H178.504L186.7 126.975H195.582Z" fill="white"/>
<path d="M141.584 126.975H155.741L145.128 27.2158H125.495L114.641 126.975H128.983L131.329 99.9824H139.273L141.584 126.975ZM132.282 88.7812L135.078 56.6074H135.503L138.285 88.7812H132.282Z" fill="white"/>
<path d="M121.909 13.9888C121.909 13.9888 117.14 14.0976 115.665 14.4395C114.283 14.7438 112.981 15.3406 111.844 16.1907C110.758 17.0387 109.882 18.1292 109.283 19.377C108.582 20.9237 108.249 22.6144 108.309 24.3144V130.317L92.7993 140V24.1124C92.7993 19.7258 93.4259 16.0214 94.6792 12.9992C95.8008 10.1711 97.5663 7.65051 99.8321 5.64225C102.036 3.73998 104.628 2.35305 107.423 1.58038C110.271 0.756602 129.592 0.404297 129.592 0.404297L121.909 13.9888Z" fill="white"/>
</svg>
