<svg width="598" height="53" viewBox="0 0 598 53" fill="none" xmlns="http://www.w3.org/2000/svg">
<path d="M40 2.32V52H31.36V19.672C31.36 17.512 31.528 15.424 31.864 13.408H31.432C31.096 14.416 30.688 15.448 30.208 16.504C29.728 17.56 29.248 18.544 28.768 19.456L9.544 52H0.616V2.32H9.256V34.144C9.256 35.248 9.208 36.352 9.112 37.456C9.016 38.56 8.92 39.64 8.824 40.696H9.112C9.544 39.688 10 38.68 10.48 37.672C11.008 36.616 11.536 35.608 12.064 34.648L31.072 2.32H40ZM66.5033 15.784C68.2793 15.784 70.3193 15.928 72.6233 16.216C74.9273 16.456 77.0153 16.96 78.8873 17.728L77.8793 23.2C76.1033 23.104 74.3273 23.032 72.5513 22.984C70.8233 22.936 69.2873 22.912 67.9433 22.912C65.5433 22.912 63.6233 23.248 62.1833 23.92C60.7913 24.592 59.7833 25.744 59.1593 27.376C58.5353 29.008 58.2233 31.312 58.2233 34.288C58.2233 37.264 58.5353 39.592 59.1593 41.272C59.7833 42.904 60.7913 44.056 62.1833 44.728C63.6233 45.4 65.5433 45.736 67.9433 45.736C69.0953 45.736 70.6793 45.688 72.6953 45.592C74.7593 45.496 76.7513 45.328 78.6713 45.088L79.4633 50.704C77.6393 51.472 75.5753 52.024 73.2713 52.36C71.0153 52.696 68.7353 52.864 66.4313 52.864C62.2073 52.864 58.8233 52.264 56.2793 51.064C53.7353 49.864 51.8873 47.92 50.7353 45.232C49.6313 42.496 49.0793 38.848 49.0793 34.288C49.0793 29.728 49.6553 26.104 50.8073 23.416C51.9593 20.68 53.8073 18.736 56.3513 17.584C58.8953 16.384 62.2793 15.784 66.5033 15.784ZM119.204 16.648V52H110.636V22.984H95.2999V52H86.8039V16.648H119.204ZM144.252 29.608C148.092 29.608 151.092 29.968 153.252 30.688C155.46 31.36 157.02 32.536 157.932 34.216C158.892 35.848 159.372 38.104 159.372 40.984C159.372 43.96 158.892 46.288 157.932 47.968C156.972 49.6 155.484 50.752 153.468 51.424C151.5 52.096 148.908 52.432 145.692 52.432C143.196 52.432 141.036 52.408 139.212 52.36C137.388 52.36 135.708 52.312 134.172 52.216C132.636 52.168 131.052 52.096 129.42 52H129.132V16.648H137.628V29.608H144.252ZM173.628 16.648V52H164.772V16.648H173.628ZM144.252 35.224H137.628V46.168C139.596 46.216 141.804 46.24 144.252 46.24C146.652 46.24 148.308 45.88 149.22 45.16C150.132 44.44 150.588 42.952 150.588 40.696C150.588 38.584 150.156 37.144 149.292 36.376C148.428 35.608 146.748 35.224 144.252 35.224ZM213.29 16.648V23.488H201.122V52H192.41V23.488H180.17V16.648H213.29ZM237.691 15.784C241.915 15.784 245.131 16.672 247.339 18.448C249.595 20.176 250.723 23.368 250.723 28.024V52H243.811L242.875 46.24C242.011 47.248 240.907 48.256 239.563 49.264C238.219 50.224 236.659 51.04 234.883 51.712C233.155 52.384 231.211 52.72 229.051 52.72C225.835 52.72 223.195 51.88 221.131 50.2C219.067 48.52 218.035 46.072 218.035 42.856V39.112C218.035 36.328 218.947 34.168 220.771 32.632C222.595 31.048 225.139 30.256 228.403 30.256H242.011V27.952C241.963 26.08 241.507 24.736 240.643 23.92C239.779 23.056 238.147 22.624 235.747 22.624C233.875 22.624 231.547 22.696 228.763 22.84C226.027 22.984 223.267 23.176 220.483 23.416L219.691 17.44C221.371 17.152 223.267 16.888 225.379 16.648C227.491 16.36 229.627 16.144 231.787 16C233.947 15.856 235.915 15.784 237.691 15.784ZM226.675 41.704C226.675 44.584 228.259 46.048 231.427 46.096C232.963 46.096 234.667 45.736 236.539 45.016C238.459 44.296 240.283 43.24 242.011 41.848V35.656H230.779C229.291 35.704 228.235 36.088 227.611 36.808C226.987 37.528 226.675 38.512 226.675 39.76V41.704ZM293.668 16.648V52L285.82 52.072V31.408C285.82 30.544 285.844 29.704 285.892 28.888C285.988 28.024 286.06 27.112 286.108 26.152H285.964C285.628 26.92 285.22 27.76 284.74 28.672C284.26 29.536 283.78 30.28 283.3 30.904L267.964 52H260.476V16.648H268.324V37.528C268.324 38.392 268.3 39.208 268.252 39.976C268.204 40.744 268.132 41.608 268.036 42.568H268.18C268.564 41.752 268.972 40.96 269.404 40.192C269.884 39.424 270.364 38.728 270.844 38.104L286.252 16.648H293.668ZM282.364 0.951996H288.34C288.532 2.92 288.196 4.72 287.332 6.352C286.468 7.936 285.148 9.232 283.372 10.24C281.644 11.2 279.532 11.68 277.036 11.68C274.54 11.68 272.38 11.2 270.556 10.24C268.78 9.232 267.46 7.936 266.596 6.352C265.732 4.72 265.396 2.92 265.588 0.951996H271.564C271.468 3.112 271.9 4.696 272.86 5.704C273.82 6.712 275.212 7.216 277.036 7.216C278.764 7.216 280.108 6.712 281.068 5.704C282.028 4.696 282.46 3.112 282.364 0.951996ZM351.868 16.648V52H343.3V22.984H327.964V52H319.468V16.648H351.868ZM394.988 16.648V52L387.14 52.072V31.408C387.14 30.544 387.164 29.704 387.212 28.888C387.308 28.024 387.38 27.112 387.428 26.152H387.284C386.948 26.92 386.54 27.76 386.06 28.672C385.58 29.536 385.1 30.28 384.62 30.904L369.284 52H361.796V16.648H369.644V37.528C369.644 38.392 369.62 39.208 369.572 39.976C369.524 40.744 369.452 41.608 369.356 42.568H369.5C369.884 41.752 370.292 40.96 370.724 40.192C371.204 39.424 371.684 38.728 372.164 38.104L387.572 16.648H394.988ZM420.808 15.784C422.584 15.784 424.624 15.928 426.928 16.216C429.232 16.456 431.32 16.96 433.192 17.728L432.184 23.2C430.408 23.104 428.632 23.032 426.856 22.984C425.128 22.936 423.592 22.912 422.248 22.912C419.848 22.912 417.928 23.248 416.488 23.92C415.096 24.592 414.088 25.744 413.464 27.376C412.84 29.008 412.528 31.312 412.528 34.288C412.528 37.264 412.84 39.592 413.464 41.272C414.088 42.904 415.096 44.056 416.488 44.728C417.928 45.4 419.848 45.736 422.248 45.736C423.4 45.736 424.984 45.688 427 45.592C429.064 45.496 431.056 45.328 432.976 45.088L433.768 50.704C431.944 51.472 429.88 52.024 427.576 52.36C425.32 52.696 423.04 52.864 420.736 52.864C416.512 52.864 413.128 52.264 410.584 51.064C408.04 49.864 406.192 47.92 405.04 45.232C403.936 42.496 403.384 38.848 403.384 34.288C403.384 29.728 403.96 26.104 405.112 23.416C406.264 20.68 408.112 18.736 410.656 17.584C413.2 16.384 416.584 15.784 420.808 15.784ZM458.965 15.784C463.189 15.784 466.405 16.672 468.613 18.448C470.869 20.176 471.997 23.368 471.997 28.024V52H465.085L464.149 46.24C463.285 47.248 462.181 48.256 460.837 49.264C459.493 50.224 457.933 51.04 456.157 51.712C454.429 52.384 452.485 52.72 450.325 52.72C447.109 52.72 444.469 51.88 442.405 50.2C440.341 48.52 439.309 46.072 439.309 42.856V39.112C439.309 36.328 440.221 34.168 442.045 32.632C443.869 31.048 446.413 30.256 449.677 30.256H463.285V27.952C463.237 26.08 462.781 24.736 461.917 23.92C461.053 23.056 459.421 22.624 457.021 22.624C455.149 22.624 452.821 22.696 450.037 22.84C447.301 22.984 444.541 23.176 441.757 23.416L440.965 17.44C442.645 17.152 444.541 16.888 446.653 16.648C448.765 16.36 450.901 16.144 453.061 16C455.221 15.856 457.189 15.784 458.965 15.784ZM447.949 41.704C447.949 44.584 449.533 46.048 452.701 46.096C454.237 46.096 455.941 45.736 457.813 45.016C459.733 44.296 461.557 43.24 463.285 41.848V35.656H452.053C450.565 35.704 449.509 36.088 448.885 36.808C448.261 37.528 447.949 38.512 447.949 39.76V41.704ZM490.389 16.648V30.256H506.085V16.648H514.653V52H506.085V36.376H490.389V52H481.749V16.648H490.389ZM557.762 16.648V52L549.914 52.072V31.408C549.914 30.544 549.938 29.704 549.986 28.888C550.082 28.024 550.154 27.112 550.202 26.152H550.058C549.722 26.92 549.314 27.76 548.834 28.672C548.354 29.536 547.874 30.28 547.394 30.904L532.058 52H524.57V16.648H532.418V37.528C532.418 38.392 532.394 39.208 532.346 39.976C532.298 40.744 532.226 41.608 532.13 42.568H532.274C532.658 41.752 533.066 40.96 533.498 40.192C533.978 39.424 534.458 38.728 534.938 38.104L550.346 16.648H557.762ZM581.349 16.144C584.181 16.144 586.533 16.168 588.405 16.216C590.325 16.216 591.981 16.264 593.373 16.36C594.813 16.408 596.277 16.504 597.765 16.648V52H589.269V39.544C588.261 39.544 587.109 39.544 585.813 39.544C584.565 39.544 583.173 39.544 581.637 39.544C578.757 39.544 577.053 40.552 576.525 42.568L574.005 52H565.077L568.101 41.2C568.581 39.664 569.517 38.608 570.909 38.032C572.349 37.456 573.693 37.096 574.941 36.952V36.664C571.965 36.184 569.901 35.08 568.749 33.352C567.597 31.624 567.021 29.488 567.021 26.944C567.021 24.448 567.429 22.408 568.245 20.824C569.061 19.192 570.501 18.016 572.565 17.296C574.629 16.528 577.557 16.144 581.349 16.144ZM581.637 33.712H589.269V22.624C588.165 22.624 586.965 22.624 585.669 22.624C584.373 22.624 582.981 22.624 581.493 22.624C579.045 22.624 577.437 23.032 576.669 23.848C575.901 24.616 575.517 25.936 575.517 27.808C575.517 29.968 575.925 31.504 576.741 32.416C577.557 33.28 579.189 33.712 581.637 33.712Z" fill="white"/>
</svg>
