<svg width="369" height="104" viewBox="0 0 369 104" fill="none" xmlns="http://www.w3.org/2000/svg">
<g clip-path="url(#clip0)">
<path d="M148.597 104H123.338V30.333H148.597V104Z" fill="white"/>
<path d="M206.694 34.5714L223.869 0H252.808L223.437 51.5714L253.603 104H224.375L206.694 68.7858L189.013 104H159.856L189.951 51.5714L160.65 0H189.518L206.694 34.5714Z" fill="white"/>
<path d="M287.233 84.7143H331.327V104H261.902V0H287.233V84.7143Z" fill="white"/>
<path d="M369 104H343.741V30.333H369V104Z" fill="white"/>
<path fill-rule="evenodd" clip-rule="evenodd" d="M50.6684 78L50.6652 104H25.3342V78H50.6684ZM50.6684 78H67.1909C79.9886 78 90.256 72.5239 96.9312 65C104.575 55.1906 107.946 48.0596 107.946 37.9168C107.946 31.0595 106.331 22.3094 102.915 16.9286C99.5473 11.5 94.76 7.33333 88.5537 4.42857C82.3953 1.47619 75.2987 0 67.264 0H50.6652V26H68.2924C72.8631 26.0477 79.5083 26 82.6118 26C82.6118 26 82.6118 33.0596 82.6118 37.9168C82.6118 42.3453 82.6118 49.8333 82.6118 49.8333C78.489 49.8333 73.1998 49.8333 68.2924 49.8333H50.6652V26H25.3342V52H50.6652L50.6684 78Z" fill="white"/>
<path d="M0 0H25.3344V26H0V0Z" fill="#4F42E9"/>
<path d="M123.368 0H148.702V26H123.368V0Z" fill="#3FF593"/>
<path d="M343.666 0H369V26H343.666V0Z" fill="#1ABCFE"/>
<path d="M25.3242 50.9805H50.6643V79.5295H25.3242V50.9805Z" fill="white"/>
</g>
<defs>
<clipPath id="clip0">
<rect width="369" height="104" fill="white"/>
</clipPath>
</defs>
</svg>
