<svg width="375" height="52" viewBox="0 0 375 52" fill="none" xmlns="http://www.w3.org/2000/svg">
<path d="M20.696 0.599997C25.64 0.599997 29.528 1.08 32.36 2.04C35.24 3 37.256 4.704 38.408 7.152C39.608 9.552 40.208 12.912 40.208 17.232C40.208 21.552 39.632 24.912 38.48 27.312C37.376 29.664 35.528 31.32 32.936 32.28C30.344 33.24 26.864 33.72 22.496 33.72C21.056 33.72 19.616 33.672 18.176 33.576C16.784 33.48 15.416 33.36 14.072 33.216V51H0.536V1.32C2.648 1.128 4.64 0.983999 6.512 0.887997C8.384 0.743996 10.424 0.671996 12.632 0.671996C14.84 0.623996 17.528 0.599997 20.696 0.599997ZM20.336 10.392C19.232 10.392 18.152 10.392 17.096 10.392C16.04 10.392 15.032 10.392 14.072 10.392V24H20.336C22.832 23.952 24.512 23.496 25.376 22.632C26.24 21.72 26.672 19.92 26.672 17.232C26.672 14.496 26.24 12.672 25.376 11.76C24.512 10.848 22.832 10.392 20.336 10.392ZM57.1078 1.104C61.1878 1.104 65.4598 1.152 69.9238 1.248C74.3878 1.296 78.3718 1.512 81.8758 1.896L81.2998 11.544H62.6518C60.4918 11.544 59.4118 12.576 59.4118 14.64V20.832H78.6358V29.976H59.4118V37.68C59.4118 39.744 60.4918 40.776 62.6518 40.776H81.2998L81.8758 50.424C78.3718 50.808 74.3878 51.024 69.9238 51.072C65.4598 51.168 61.1878 51.216 57.1078 51.216C53.7958 51.216 51.0838 50.232 48.9718 48.264C46.9078 46.296 45.8758 43.728 45.8758 40.56V11.76C45.8758 8.592 46.9078 6.024 48.9718 4.056C51.0838 2.088 53.7958 1.104 57.1078 1.104ZM108.374 0.455998C110.87 0.455998 112.982 0.527997 114.71 0.671996C116.486 0.767997 118.094 0.959998 119.534 1.248C120.974 1.488 122.486 1.824 124.07 2.256L123.062 12.192C121.43 12.144 119.918 12.096 118.526 12.048C117.134 12 115.646 11.976 114.062 11.976C112.478 11.928 110.582 11.904 108.374 11.904C106.358 11.904 104.798 12.312 103.694 13.128C102.59 13.944 101.822 15.384 101.39 17.448C100.958 19.512 100.742 22.416 100.742 26.16C100.742 29.904 100.958 32.808 101.39 34.872C101.822 36.936 102.59 38.376 103.694 39.192C104.798 40.008 106.358 40.416 108.374 40.416C111.878 40.416 114.782 40.392 117.086 40.344C119.438 40.248 121.79 40.056 124.142 39.768L125.15 49.632C122.75 50.448 120.278 51.024 117.734 51.36C115.238 51.696 112.118 51.864 108.374 51.864C103.046 51.864 98.774 51.048 95.558 49.416C92.39 47.736 90.086 45.024 88.646 41.28C87.254 37.536 86.558 32.496 86.558 26.16C86.558 19.824 87.254 14.784 88.646 11.04C90.086 7.296 92.39 4.608 95.558 2.976C98.774 1.296 103.046 0.455998 108.374 0.455998ZM144.855 1.32V19.752H159.687V1.32H173.223V51H159.687V29.472H144.855V51H131.319V1.32H144.855ZM225.348 1.32V51H212.532V25.152C212.532 23.952 212.58 22.752 212.676 21.552C212.82 20.352 213.012 19.128 213.252 17.88H212.748C212.364 19.128 211.932 20.352 211.452 21.552C210.972 22.752 210.42 23.904 209.796 25.008L195.396 51H182.436V1.32H195.252V26.448C195.252 27.648 195.18 28.896 195.036 30.192C194.94 31.488 194.796 32.784 194.604 34.08H195.036C195.948 31.488 196.98 29.112 198.132 26.952L212.46 1.32H225.348ZM246.346 1.32V19.392C246.346 20.928 246.682 22.032 247.354 22.704C248.026 23.376 249.322 23.712 251.242 23.712C252.634 23.712 254.05 23.616 255.49 23.424C256.93 23.232 258.658 22.8 260.674 22.128V1.32H274.21V51H260.674V31.344C258.178 32.496 255.634 33.384 253.042 34.008C250.498 34.584 248.242 34.872 246.274 34.872C241.666 34.872 238.282 33.864 236.122 31.848C233.962 29.784 232.882 26.616 232.882 22.344V1.32H246.346ZM296.799 1.32V14.568C296.799 16.632 296.583 18.672 296.151 20.688H298.599C300.375 20.688 301.815 20.376 302.919 19.752C304.023 19.128 304.959 18.096 305.727 16.656C306.495 15.168 307.239 13.176 307.959 10.68C308.679 8.184 309.543 5.064 310.551 1.32H324.231C322.887 5.784 321.759 9.48 320.847 12.408C319.935 15.288 318.999 17.592 318.039 19.32C317.079 21.048 315.879 22.32 314.439 23.136C312.999 23.952 311.055 24.528 308.607 24.864V25.296C310.623 25.584 312.327 26.016 313.719 26.592C315.111 27.168 316.287 28.008 317.247 29.112C318.255 30.216 319.167 31.704 319.983 33.576C320.799 35.448 321.639 37.8 322.503 40.632C323.367 43.464 324.423 46.92 325.671 51H311.559C310.263 46.488 309.183 42.84 308.319 40.056C307.503 37.224 306.687 35.064 305.871 33.576C305.055 32.088 304.095 31.08 302.991 30.552C301.935 29.976 300.543 29.688 298.815 29.688H296.223C296.415 30.504 296.559 31.32 296.655 32.136C296.751 32.904 296.799 33.648 296.799 34.368V51H283.335V1.32H296.799ZM356.781 1.32C357.885 1.32 358.845 1.632 359.661 2.256C360.525 2.88 361.101 3.744 361.389 4.848L374.997 51H361.173L358.221 39.192H342.957L339.933 51H326.109L339.717 4.848C340.005 3.744 340.557 2.88 341.373 2.256C342.237 1.632 343.221 1.32 344.325 1.32H356.781ZM348.645 16.728L345.405 29.472H355.701L352.461 16.728C352.269 15.912 352.077 15.048 351.885 14.136C351.741 13.176 351.621 12.288 351.525 11.472H349.581C349.437 12.288 349.293 13.176 349.149 14.136C349.005 15.048 348.837 15.912 348.645 16.728Z" fill="white"/>
</svg>
