<svg width="362" height="106" viewBox="0 0 362 106" fill="none" xmlns="http://www.w3.org/2000/svg">
<path d="M150.503 103.189C144.742 103.189 139.907 101.974 135.996 99.5425C132.138 97.1115 129.416 93.7292 127.831 89.3956L139.959 82.3404C142.021 87.2553 145.667 89.7127 150.899 89.7127C155.233 89.7127 157.399 88.4708 157.399 85.9869C157.399 84.4015 156.158 83.0802 153.674 82.0233C152.828 81.7062 150.503 80.9927 146.698 79.8829C141.307 78.3503 137.211 76.2099 134.41 73.4618C131.609 70.7137 130.209 67.0671 130.209 62.5222C130.209 57.3959 132.032 53.2473 135.679 50.0764C139.431 46.9054 144.029 45.32 149.472 45.32C154.123 45.32 158.245 46.4298 161.839 48.6494C165.432 50.8162 168.181 53.9343 170.083 58.0036L158.192 64.9796C156.448 60.8574 153.568 58.7964 149.551 58.7964C147.913 58.7964 146.645 59.1399 145.746 59.8269C144.848 60.4611 144.399 61.3331 144.399 62.4429C144.399 63.6584 145.033 64.689 146.301 65.5345C147.623 66.3801 150.159 67.3578 153.911 68.4676C156.712 69.3132 158.879 70.0531 160.412 70.6873C162.156 71.4271 163.953 72.4313 165.802 73.6996C169.66 76.2364 171.589 80.2793 171.589 85.8284C171.589 91.2718 169.66 95.5261 165.802 98.5913C161.944 101.656 156.845 103.189 150.503 103.189ZM217.653 46.5091H231.764V102H217.653V72.1142L204.177 94.3898H202.75L189.353 72.1934V102H175.163V46.5091H189.353L203.463 70.2116L217.653 46.5091ZM288.142 102H272.842L270.464 93.9935H251.994L249.615 102H234.236L252.548 46.5091H269.83L288.142 102ZM261.189 62.9185L255.64 81.7854H266.818L261.189 62.9185ZM304.781 46.5091V88.2858H323.886V102H290.591V46.5091H304.781ZM341.671 46.5091V88.2858H360.776V102H327.481V46.5091H341.671Z" fill="white"/>
<g clip-path="url(#clip0)">
<path d="M106 0H0V106H106V0Z" fill="#F5CA44"/>
<path d="M55.385 0H0V60.6453H55.385V0Z" fill="#614F7D"/>
<path d="M28.1179 60.6457L67.3114 99.8392L106.001 61.1492V60.1289L67.3114 21.4521L28.1179 60.6457Z" fill="white"/>
<path d="M82.5618 0C75.8887 4.93012 70.9419 11.8407 68.4265 19.7471C65.911 27.6534 65.9553 36.1519 68.553 44.0316C71.1507 51.9113 76.1692 58.77 82.8934 63.6303C89.6175 68.4906 97.7043 71.1045 106.001 71.0995V0H82.5618Z" fill="#537DB7"/>
<path d="M0.000732422 74.2V106H34.9542V53C27.746 52.9975 20.6753 54.9729 14.5122 58.7109C8.349 62.449 3.32964 67.8065 0.000732422 74.2H0.000732422Z" fill="#D24A44"/>
</g>
<defs>
<clipPath id="clip0">
<rect width="106" height="106" rx="9.70866" fill="white"/>
</clipPath>
</defs>
</svg>
