<svg width="369" height="66" viewBox="0 0 369 66" fill="none" xmlns="http://www.w3.org/2000/svg">
<path fill-rule="evenodd" clip-rule="evenodd" d="M119.653 45.0054C122.083 45.0054 124.043 43.0256 124.043 40.6146V39.4972C124.043 37.2822 122.24 35.4788 120.025 35.4788H107.813V29.0298C107.813 29.0298 117.79 29.0298 120.005 29.0298C122.22 29.0298 124.043 27.2264 124.043 25.0114C124.043 22.7963 122.22 20.9929 119.986 20.9929H103.755V14.5635H122.534C127.807 14.5635 132.119 18.8563 132.119 24.1097V25.1094C132.119 28.3633 130.159 31.186 127.395 32.4013C130.238 34.2243 132.119 37.4194 132.119 41.0458V42.5944C132.119 47.4557 128.14 51.4153 123.259 51.4153H103.755V45.0054H119.653Z" fill="white"/>
<path fill-rule="evenodd" clip-rule="evenodd" d="M164.775 29.0298H153.406C147.133 29.0298 141.978 34.1263 141.998 40.4185V42.5944C142.017 47.4557 145.996 51.4153 150.858 51.4153H172.851V29.265C172.851 21.1694 166.226 14.5635 158.091 14.5635H144.605V20.9929H156.719C161.149 20.9929 164.775 24.5997 164.775 29.0298ZM154.935 35.4788H164.795V45.0054H154.464C152.053 45.0054 150.093 43.0256 150.093 40.6146V40.3205C150.093 37.6547 152.269 35.4788 154.935 35.4788Z" fill="white"/>
<path fill-rule="evenodd" clip-rule="evenodd" d="M204.628 14.583C210.783 14.583 215.801 19.5619 215.801 25.6778V27.6772C215.801 33.7734 210.783 38.7523 204.648 38.7523H192.984V51.4152H184.85V14.583H204.628ZM203.315 32.1856C205.765 32.1856 207.745 30.2254 207.745 27.8144V25.3837C207.745 22.9727 205.765 21.0125 203.334 21.0125H192.984V32.1856H203.315Z" fill="white"/>
<path fill-rule="evenodd" clip-rule="evenodd" d="M233.558 21.0909V51.4152H241.634V21.0909H253.18V14.583H222.287V21.0909H233.558Z" fill="white"/>
<path fill-rule="evenodd" clip-rule="evenodd" d="M286.915 14.5635H274.506C269.861 14.5635 267.489 15.328 265.039 17.5038C261.177 20.9537 259.197 26.0895 259.197 32.5777C259.197 38.576 260.824 44.0841 263.765 47.3185C266.509 50.3568 270.018 51.4153 277.349 51.4153H286.915V45.0054H276.114C270.958 45.0054 267.469 41.2026 267.469 35.4984H286.915V29.0494H267.528C267.509 23.7176 271.253 21.0321 274.722 21.0321H286.915V14.5635Z" fill="white"/>
<path fill-rule="evenodd" clip-rule="evenodd" d="M299.932 14.5635H307.988V28.971H315.437C318.906 28.971 322.65 26.3051 322.631 20.9537L322.592 14.5635H330.687V17.4254C330.687 23.7372 328.845 28.7357 325.199 32.1857C328.923 35.616 330.805 40.6734 330.805 47.0244V51.3761L322.709 51.4153L322.748 43.5157C322.768 38.1643 319.024 35.4788 315.554 35.4788H307.988V51.3761H299.932V14.5635Z" fill="white"/>
<path fill-rule="evenodd" clip-rule="evenodd" d="M368.815 14.5635H356.407C351.761 14.5635 349.389 15.328 346.959 17.5038C343.077 20.9537 341.117 26.0895 341.117 32.5777C341.117 38.576 342.725 44.0841 345.665 47.3185C348.409 50.3568 351.918 51.4153 359.249 51.4153H368.815V45.0054H358.034C352.859 45.0054 349.37 41.2026 349.37 35.4984L349.428 29.0494C349.409 23.7176 353.153 21.0321 356.622 21.0321H368.815V14.5635Z" fill="white"/>
<path fill-rule="evenodd" clip-rule="evenodd" d="M30.2067 18.6415C30.2067 18.7003 30.2067 18.7199 30.1675 18.7787C29.403 19.406 28.6778 20.0921 28.0505 20.8369L19.0532 31.5396C19.014 31.5789 18.9748 31.6181 18.9159 31.6181H14.5447C13.7802 31.6181 13.153 32.2453 13.153 33.0098C13.153 33.7743 13.7802 34.4015 14.5447 34.4015H16.2893C16.3677 34.4015 16.4657 34.4604 16.4657 34.578C16.4657 34.6172 16.4461 34.6564 16.4265 34.676L11.5064 40.537C10.1146 42.1835 9.09534 44.0261 8.42887 45.9667C8.40927 46.0255 8.35046 46.0843 8.25245 46.0843C8.23285 46.0843 8.21325 46.0843 8.17404 46.0647C3.37155 43.6733 0 38.7336 0 33.0098C0 24.9926 6.52747 18.4651 14.5251 18.4651H30.0303C30.1479 18.4651 30.2067 18.5631 30.2067 18.6415ZM27.6977 51.5729C26.9332 51.5729 26.2863 50.9653 26.2863 50.2008C26.2863 49.8675 26.3843 49.5539 26.6195 49.2795L53.2979 17.485C53.3175 17.4458 53.3371 17.4262 53.3371 17.3674C53.3371 17.2694 53.2391 17.191 53.1607 17.191L42.0463 17.2106C37.5575 17.2302 33.0882 19.1316 29.9911 22.8364L13.6626 42.3208C13.643 42.3208 13.643 42.3208 13.643 42.3208C11.3692 45.0062 10.2715 48.2994 10.2715 51.5729C10.2911 55.6893 12.0356 59.7862 15.4268 62.6285C17.9947 64.7847 21.3466 66 24.6985 66H65.4511C69.4108 66 72.6451 62.7657 72.6451 58.7865C72.6451 54.8268 69.4108 51.5729 65.4511 51.5729H27.6977ZM53.984 47.3585C53.984 47.2997 53.984 47.2605 54.0428 47.2213C54.7876 46.594 55.5129 45.8883 56.1402 45.1631L65.1375 34.4407C65.1767 34.4015 65.2159 34.3819 65.2747 34.3819H69.646C70.4105 34.3819 71.0377 33.7547 71.0377 32.9902C71.0377 32.2257 70.4105 31.5985 69.646 31.5985H67.9014C67.823 31.5985 67.725 31.5396 67.725 31.422C67.725 31.3828 67.7446 31.3436 67.7642 31.324L72.6843 25.463C74.076 23.8165 75.0953 21.9739 75.7618 20.0333C75.7814 19.9745 75.8402 19.9157 75.9382 19.9157C75.9578 19.9157 75.9774 19.9157 76.0166 19.9353C80.8191 22.3267 84.1907 27.2664 84.1907 32.9902C84.1907 41.0074 77.6632 47.5349 69.6656 47.5349H54.1604C54.0428 47.5349 53.984 47.4369 53.984 47.3585ZM56.493 14.4075C57.2575 14.4075 57.9044 15.0347 57.9044 15.7992C57.9044 16.1129 57.8064 16.4461 57.5711 16.7205L30.8928 48.515C30.8732 48.5346 30.8536 48.5738 30.8536 48.6326C30.8536 48.7306 30.9516 48.809 31.03 48.809L42.1443 48.7894C46.6332 48.7698 51.1025 46.8488 54.1996 43.1636L70.5281 23.6792C70.5477 23.6792 70.5477 23.6792 70.5477 23.6792C72.8215 20.9742 73.9192 17.681 73.9192 14.4075C73.8996 10.2911 72.155 6.21384 68.7639 3.37155C66.196 1.21533 62.8441 0 59.4921 0H18.7395C14.7799 0 11.5456 3.23433 11.5456 7.21354C11.5456 11.1732 14.7799 14.4075 18.7395 14.4075H56.493Z" fill="#737373"/>
<path fill-rule="evenodd" clip-rule="evenodd" d="M26.6202 20.0745L18.2501 30.0128H14.5453C12.8987 30.0128 11.5658 31.3653 11.5658 33.0119C11.5658 33.9136 11.9774 34.7565 12.6831 35.3249L13.3496 35.8738L10.2917 39.5001C9.38998 40.5783 8.6059 41.7544 7.97864 42.9893L7.50819 43.891L6.70451 43.2833C3.50938 40.8135 1.58838 37.0499 1.58838 33.0119C1.58838 25.8767 7.41018 20.0745 14.5257 20.0745H26.6202ZM50.123 18.8004L25.3852 48.2623C24.9344 48.8111 24.6992 49.4972 24.6992 50.2029C24.6992 51.8494 26.0517 53.1824 27.6983 53.1824H65.4518C68.5293 53.1824 71.0579 55.711 71.0579 58.7885C71.0579 61.8857 68.5293 64.3947 65.4518 64.3947H24.6992C21.7197 64.3947 18.7205 63.3166 16.4467 61.4152C13.526 58.965 11.8794 55.3778 11.8794 51.575C11.8794 48.6347 12.7615 45.6944 14.7609 43.4794C14.8001 43.4206 14.8393 43.3813 14.8785 43.3421L31.207 23.8577C33.9121 20.6626 37.8521 18.8004 42.0469 18.8004H50.123ZM57.5717 45.9296L65.9418 35.9914H69.6466C71.2932 35.9914 72.6261 34.6388 72.6261 32.9923C72.6261 32.0906 72.2145 31.2477 71.5088 30.6792L70.8423 30.1304L73.9002 26.4844C74.8019 25.4259 75.586 24.2498 76.2329 23.0149L76.6837 22.1132L77.4874 22.7208C80.6825 25.1711 82.6035 28.9543 82.6035 32.9923C82.6035 40.1274 76.7817 45.9296 69.6662 45.9296H57.5717ZM34.0689 47.2037L58.8067 17.7419C59.2575 17.1931 59.4927 16.507 59.4927 15.8013C59.4927 14.1547 58.1402 12.8218 56.4936 12.8218H18.7401C15.6626 12.8218 13.134 10.2931 13.134 7.21562C13.134 4.1185 15.6626 1.58984 18.7401 1.58984H59.4927C62.4723 1.58984 65.4714 2.68756 67.7452 4.58895C70.6659 7.03921 72.3125 10.6264 72.3125 14.4096C72.3125 17.3695 71.4108 20.3098 69.431 22.5248C69.3918 22.564 69.3526 22.6032 69.3134 22.662L52.9849 42.1268C50.2798 45.3416 46.3398 47.1841 42.145 47.2037H34.0689Z" fill="#F8D015"/>
</svg>
