<svg width="118" height="106" viewBox="0 0 118 106" fill="none" xmlns="http://www.w3.org/2000/svg">
<path fill-rule="evenodd" clip-rule="evenodd" d="M31.296 60.8937C27.1171 60.1616 17.6715 59.2363 11.0829 64.1371C10.6661 64.5235 11.5913 65.4792 13.4825 66.4146H17.7833C15.516 65.5097 14.3569 64.5133 14.8043 64.1371C19.8778 60.7005 26.6901 60.5073 31.296 60.8835V60.8937Z" fill="white"/>
<path fill-rule="evenodd" clip-rule="evenodd" d="M18.5566 64.6143C21.0172 63.3128 25.4502 64.4414 28.3073 64.4007C25.2469 65.021 21.4035 63.8314 18.5566 64.6143Z" fill="white"/>
<path fill-rule="evenodd" clip-rule="evenodd" d="M33.7973 52.1177C30.076 50.0944 21.4132 46.2003 13.6046 48.7523C12.1405 49.4132 19.3492 57.7404 31.6418 58.869C21.6674 56.7643 15.8719 50.4503 17.1327 49.9419C23.0299 48.3049 29.5574 50.2876 33.7973 52.1177Z" fill="white"/>
<path fill-rule="evenodd" clip-rule="evenodd" d="M20.5381 51.5896C23.2833 51.1422 27.1266 53.6231 29.8414 54.4975C26.7403 54.1112 23.4765 51.7523 20.5381 51.5896Z" fill="white"/>
<path fill-rule="evenodd" clip-rule="evenodd" d="M45.6125 37.2135C43.4773 32.9736 39.2171 26.3952 32.5269 24.016C31.439 23.5178 31.0831 32.0077 38.1597 40.1824C38.1902 40.1315 38.2207 40.0909 38.2614 40.0502C33.0556 32.9634 33.4318 26.7714 34.6011 27.1171C39.4917 29.0998 43.1011 33.5023 45.4397 37.2643L45.6227 37.2135H45.6125Z" fill="white"/>
<path fill-rule="evenodd" clip-rule="evenodd" d="M36.2891 30.4922C38.7191 31.7936 40.2341 36.0335 41.8304 38.3923L41.81 38.4025C39.6342 36.1962 38.4954 32.3935 36.2891 30.4922Z" fill="white"/>
<path fill-rule="evenodd" clip-rule="evenodd" d="M54.8131 35.5972C54.2843 31.1337 52.4745 22.4404 46.2825 17.6719C44.9709 16.8686 42.3477 26.5176 47.3196 36.7766L47.5128 36.736C44.432 27.9614 46.2317 20.5391 47.2891 21.261C51.7526 25.023 53.8065 31.1133 54.7521 35.6074H54.8131V35.5972Z" fill="white"/>
<path fill-rule="evenodd" clip-rule="evenodd" d="M47.8584 24.9922C49.7801 27.0054 49.8919 31.5909 50.7053 34.3158C49.2819 31.5401 49.3835 27.5137 47.8584 24.9922Z" fill="white"/>
<path fill-rule="evenodd" clip-rule="evenodd" d="M36.7565 42.9475C33.8994 39.8159 29.3647 34.783 21.1494 34.6406C19.5429 34.783 23.6303 45.0115 34.8857 50.0952C26.1518 44.8488 22.7355 36.9792 24.098 36.9181C30.2086 37.2943 33.3504 39.8261 36.7667 42.9475H36.7565Z" fill="white"/>
<path fill-rule="evenodd" clip-rule="evenodd" d="M26.7822 39.582C29.5275 40.0497 32.3439 43.6592 34.6315 45.3673C31.8253 43.9947 29.5173 40.7005 26.7822 39.582Z" fill="white"/>
<path fill-rule="evenodd" clip-rule="evenodd" d="M19.3793 55.6562C17.5695 55.7884 15.719 56.2155 14.021 57.1102C13.5126 57.4559 15.0276 59.0522 17.8948 60.3536C18.4235 60.2011 18.9624 60.0791 19.4911 59.9876C17.3254 58.92 16.2274 57.7914 16.6646 57.5271C17.9457 56.917 19.3183 56.5713 20.7011 56.4086C20.2334 56.1646 19.786 55.9206 19.3793 55.6664V55.6562Z" fill="white"/>
<path fill-rule="evenodd" clip-rule="evenodd" d="M19.2783 58.269C21.1695 57.6081 24.1892 58.9095 26.2227 59.184C23.9859 59.2857 21.383 58.0148 19.2783 58.269Z" fill="white"/>
<path fill-rule="evenodd" clip-rule="evenodd" d="M24.28 43.2121C22.521 42.7545 20.64 42.5613 18.7387 42.8664C18.1388 43.029 19.0641 45.032 21.3619 47.1876C21.911 47.2181 22.46 47.2689 22.9887 47.3502C21.2806 45.6421 20.6095 44.2186 21.1077 44.1068C22.521 43.9441 23.9241 44.056 25.2866 44.3508C24.9205 43.9746 24.585 43.5883 24.2698 43.2121H24.28Z" fill="white"/>
<path fill-rule="evenodd" clip-rule="evenodd" d="M23.3447 45.6514C25.3477 45.6412 27.7879 47.8374 29.6181 48.7627C27.4626 48.1424 25.4189 46.0988 23.3447 45.6514Z" fill="white"/>
<path fill-rule="evenodd" clip-rule="evenodd" d="M32.5164 32.4142C31.0014 31.4076 29.2831 30.6247 27.3919 30.2994C26.7717 30.2587 26.9954 32.4549 28.4799 35.2306C28.9882 35.434 29.4864 35.6678 29.9745 35.9119C28.9171 33.7462 28.734 32.1804 29.2424 32.2312C30.6252 32.5362 31.9266 33.0955 33.1264 33.8072C32.9027 33.3293 32.6994 32.8616 32.5367 32.4041L32.5164 32.4142Z" fill="white"/>
<path fill-rule="evenodd" clip-rule="evenodd" d="M30.8496 34.418C32.7509 35.0484 34.3574 37.9258 35.7809 39.3899C33.9405 38.1088 32.6594 35.5161 30.8496 34.418Z" fill="white"/>
<path fill-rule="evenodd" clip-rule="evenodd" d="M43.7419 25.5911C42.6133 24.1575 41.2305 22.8763 39.5325 21.9714C38.9631 21.7376 38.4853 23.8931 39.014 27.0044C39.4308 27.3602 39.8375 27.7364 40.2137 28.1228C39.8884 25.7334 40.2137 24.188 40.6713 24.4015C41.8914 25.1234 42.9488 26.0689 43.8639 27.1162C43.8029 26.5875 43.7622 26.0893 43.7419 25.6012V25.5911Z" fill="white"/>
<path fill-rule="evenodd" clip-rule="evenodd" d="M41.5156 26.9736C43.1221 28.1734 43.7423 31.4067 44.6472 33.2368C43.3051 31.4372 42.8984 28.5801 41.5156 26.9736Z" fill="white"/>
<path fill-rule="evenodd" clip-rule="evenodd" d="M52.0078 22.4601C52.2925 22.938 52.5467 23.4159 52.7805 23.9039C53.3398 18.4745 53.2788 18.2508 55.4139 22.1246C55.8105 20.2945 53.5024 17.5187 53.1059 17.4984C52.445 17.4679 52.506 19.4201 52.0078 22.4601Z" fill="white"/>
<path fill-rule="evenodd" clip-rule="evenodd" d="M54.0107 21.6973C55.1393 23.3546 54.6716 26.6082 54.9258 28.6417C54.2446 26.5065 54.7936 23.6698 54.0107 21.6973Z" fill="white"/>
<path fill-rule="evenodd" clip-rule="evenodd" d="M87.7061 60.8937C91.8849 60.1616 101.331 59.2363 107.919 64.1371C108.336 64.5235 107.411 65.4792 105.52 66.4146H101.219C103.486 65.5097 104.645 64.5133 104.198 64.1371C99.1242 60.7005 92.3119 60.5073 87.7061 60.8835V60.8937Z" fill="white"/>
<path fill-rule="evenodd" clip-rule="evenodd" d="M100.445 64.6143C97.9844 63.3128 93.5514 64.4414 90.6943 64.4007C93.7548 65.021 97.5981 63.8314 100.445 64.6143Z" fill="white"/>
<path fill-rule="evenodd" clip-rule="evenodd" d="M85.2041 52.1177C88.9254 50.0944 97.5881 46.2003 105.397 48.7523C106.861 49.4132 99.6521 57.7404 87.3596 58.869C97.3339 56.7643 103.129 50.4503 101.869 49.9419C95.9715 48.3049 89.444 50.2876 85.2041 52.1177Z" fill="white"/>
<path fill-rule="evenodd" clip-rule="evenodd" d="M98.4634 51.5896C95.7182 51.1422 91.8749 53.6231 89.1602 54.4975C92.2612 54.1112 95.525 51.7523 98.4634 51.5896Z" fill="white"/>
<path fill-rule="evenodd" clip-rule="evenodd" d="M73.3994 37.1936C75.5346 32.9537 79.7948 26.3855 86.4748 24.0063C87.9695 23.6505 88.2033 31.8353 80.3235 39.888C80.2828 39.8473 80.232 39.8066 80.1811 39.7761C85.7733 32.5775 85.6411 26.7515 84.4108 27.1074C79.5304 29.0901 75.921 33.4824 73.5824 37.2444L73.3994 37.1936Z" fill="white"/>
<path fill-rule="evenodd" clip-rule="evenodd" d="M82.714 30.4922C80.2738 31.8038 78.7588 36.0742 77.1523 38.433H77.1625C79.3587 36.2267 80.4975 32.4037 82.714 30.4922Z" fill="white"/>
<path fill-rule="evenodd" clip-rule="evenodd" d="M64.1885 35.5865C64.7172 31.123 66.527 22.4297 72.719 17.6612C74.0306 16.8579 76.6437 26.4967 71.6921 36.7456L71.4989 36.6948C74.5695 27.9304 72.7699 20.5284 71.7124 21.2401C67.2489 25.0021 65.1951 31.0925 64.2495 35.5763H64.1885V35.5865Z" fill="white"/>
<path fill-rule="evenodd" clip-rule="evenodd" d="M71.1526 24.9922C69.2309 27.0054 69.1191 31.5909 68.3057 34.3158C69.7291 31.5401 69.6274 27.5137 71.1526 24.9922Z" fill="white"/>
<path fill-rule="evenodd" clip-rule="evenodd" d="M82.0209 42.9475C84.878 39.8159 89.6364 34.783 97.8517 34.6406C99.4582 34.783 95.3709 45.0115 84.1154 50.0952C92.8493 44.8488 96.2656 36.9792 94.9031 36.9181C88.7925 37.2943 85.427 39.8261 82.0107 42.9475H82.0209Z" fill="white"/>
<path fill-rule="evenodd" clip-rule="evenodd" d="M92.2204 39.582C89.4752 40.0497 86.6588 43.6592 84.3711 45.3673C87.1773 43.9947 89.4854 40.7005 92.2204 39.582Z" fill="white"/>
<path fill-rule="evenodd" clip-rule="evenodd" d="M99.6226 55.6562C101.432 55.7884 103.283 56.2155 104.981 57.1102C105.489 57.4559 103.974 59.0522 101.107 60.3536C100.578 60.2011 100.039 60.0791 99.5107 59.9876C101.676 58.92 102.774 57.7914 102.337 57.5271C101.056 56.917 99.6836 56.5713 98.3008 56.4086C98.7685 56.1646 99.2159 55.9206 99.6226 55.6664V55.6562Z" fill="white"/>
<path fill-rule="evenodd" clip-rule="evenodd" d="M99.7237 58.269C97.8326 57.6081 94.8128 58.9095 92.7793 59.184C95.0162 59.2857 97.619 58.0148 99.7237 58.269Z" fill="white"/>
<path fill-rule="evenodd" clip-rule="evenodd" d="M94.7195 43.2111C96.4785 42.7536 98.3594 42.5604 100.261 42.8654C100.861 43.0281 99.9354 45.0311 97.6376 47.1866C97.0885 47.2171 96.5395 47.2679 96.0107 47.3493C97.7189 45.6411 98.3899 44.2177 97.8917 44.1058C96.4785 43.9431 95.0753 44.055 93.7129 44.3498C94.0789 43.9737 94.4144 43.5873 94.7296 43.2111H94.7195Z" fill="white"/>
<path fill-rule="evenodd" clip-rule="evenodd" d="M95.6552 45.6514C93.6522 45.6412 91.212 47.8374 89.3818 48.7627C91.5373 48.1424 93.581 46.0988 95.6552 45.6514Z" fill="white"/>
<path fill-rule="evenodd" clip-rule="evenodd" d="M86.487 32.4142C88.002 31.4076 89.7203 30.6247 91.6114 30.2994C92.2316 30.2587 92.008 32.4549 90.5235 35.2306C90.0151 35.434 89.5169 35.6678 89.0289 35.9119C90.0863 33.7462 90.2693 32.1804 89.7609 32.2312C88.3782 32.5362 87.0767 33.0955 85.877 33.8072C86.1006 33.3293 86.304 32.8616 86.4667 32.4041L86.487 32.4142Z" fill="white"/>
<path fill-rule="evenodd" clip-rule="evenodd" d="M88.1539 34.417C86.2526 35.0474 84.6461 37.9248 83.2227 39.3889C85.063 38.1078 86.3441 35.5151 88.1539 34.417Z" fill="white"/>
<path fill-rule="evenodd" clip-rule="evenodd" d="M75.2617 25.5921C76.3903 24.1584 77.773 22.8773 79.471 21.9724C80.0404 21.7386 80.5183 23.8941 79.9896 27.0053C79.5727 27.3612 79.166 27.7374 78.7898 28.1238C79.1151 25.7344 78.7898 24.1889 78.3322 24.4025C77.1121 25.1243 76.0547 26.0699 75.1396 27.1172C75.2007 26.5885 75.2413 26.0903 75.2617 25.6022V25.5921Z" fill="white"/>
<path fill-rule="evenodd" clip-rule="evenodd" d="M77.488 26.9746C75.8816 28.1744 75.2614 31.4076 74.3564 33.2378C75.6986 31.4381 76.1053 28.5811 77.488 26.9746Z" fill="white"/>
<path fill-rule="evenodd" clip-rule="evenodd" d="M66.9937 22.4601C66.709 22.938 66.4548 23.4159 66.221 23.9039C65.6618 18.4745 65.7228 18.2508 63.5876 22.1246C63.1911 20.2945 65.4991 17.5187 65.8956 17.4984C66.5565 17.4679 66.4955 19.4201 66.9937 22.4601Z" fill="white"/>
<path fill-rule="evenodd" clip-rule="evenodd" d="M64.9903 21.6973C63.8617 23.3546 64.3294 26.6082 64.0752 28.6417C64.7564 26.5065 64.2074 23.6698 64.9903 21.6973Z" fill="white"/>
<path fill-rule="evenodd" clip-rule="evenodd" d="M55.9124 2.89818C49.0697 3.0507 41.5864 1.37306 35.4859 1.61708C30.9817 1.78992 29.0295 2.50165 29.1108 3.62008C29.0295 4.74867 30.9817 5.45023 35.4859 5.62308C41.5965 5.8671 49.0697 3.9556 55.9124 4.09795V3.60991V2.88802V2.89818Z" fill="#FEFEFE"/>
<path d="M58.168 95.7266C58.2189 95.8079 58.2595 95.9096 58.2697 96.0214C58.3002 96.0113 58.3104 96.0113 58.3206 96.0011C58.3917 95.9503 58.4832 95.8689 58.7273 95.7876C58.8696 95.7367 59.0424 95.7876 59.134 95.9198C59.2966 96.1638 59.3576 96.3875 59.3678 96.5806C59.4491 96.5603 59.5305 96.5806 59.6017 96.6112C59.622 96.6112 59.6423 96.6112 59.6627 96.6112C60.0084 96.6417 60.1304 96.9263 60.2625 97.2212L60.293 97.2924C60.3032 97.2924 60.3134 97.2822 60.3134 97.2822C60.5574 97.2009 60.8014 97.2212 60.9743 97.5059C61.0048 97.5567 61.0251 97.6177 61.0251 97.6787C61.1065 97.7092 61.1878 97.7601 61.259 97.8211C61.3606 97.9126 61.4318 98.0346 61.4521 98.1871C61.4623 98.2583 61.4725 98.3295 61.4725 98.3905C61.5132 98.4108 61.564 98.4515 61.625 98.5023L61.7877 98.6345C61.8792 98.6243 61.9605 98.6548 62.0317 98.7158C62.1334 98.8073 62.2249 98.9395 62.2859 99.0819C62.3469 99.2242 62.3876 99.3971 62.4079 99.5292C62.4181 99.6309 62.4181 99.7224 62.4079 99.8139C62.5299 99.8851 62.6417 99.9868 62.7129 100.119C62.8044 100.292 62.8248 100.495 62.7231 100.719V100.729C62.7231 100.739 62.7129 100.739 62.7129 100.749C62.7028 100.759 62.7028 100.78 62.6926 100.79C62.7841 100.902 62.8248 101.014 62.8248 101.115C62.6011 101.024 62.3774 100.953 62.1537 100.882C62.235 100.79 62.3367 100.709 62.3977 100.587C62.5096 100.363 62.3672 100.19 62.174 100.099C62.052 100.18 61.9707 100.312 61.9707 100.465C61.9707 100.587 61.9504 100.709 61.9097 100.821C61.7877 100.79 61.6555 100.759 61.5335 100.739C61.6555 100.607 61.7673 100.465 61.7978 100.312C61.6962 100.221 61.4623 100.21 61.2691 100.282C61.2285 100.414 61.2488 100.454 61.198 100.576C61.1776 100.617 61.1573 100.648 61.137 100.688C60.9133 100.668 60.6997 100.678 60.4964 100.709C60.5676 100.648 60.6286 100.597 60.6794 100.546C60.8421 100.393 61.0048 100.19 61.2386 100.109C61.5945 99.9766 61.686 100.078 61.93 100.109C62.0114 99.9563 62.0724 99.8241 62.0419 99.5902C62.0215 99.3971 61.9199 99.1124 61.7877 99.0005C61.7572 99.2039 61.8588 99.5902 61.4725 99.5394C61.4318 99.4377 61.442 99.4682 61.4826 99.3767C61.5437 99.2344 61.625 99.1429 61.6352 98.9802L61.381 98.7768C61.2793 98.6955 61.2386 98.6853 61.0963 98.6853C61.0861 98.5531 61.1166 98.421 61.0861 98.2583C61.0556 98.1058 60.9539 98.0346 60.8218 97.9939C60.6997 98.0956 60.5879 98.2176 60.5269 98.3193C60.4049 98.5328 59.9474 98.7565 59.9169 98.909C59.9067 98.97 59.8965 99.275 59.9169 99.3462C60.171 99.1632 60.4049 98.8378 60.7608 98.6853C60.8421 99.0005 60.7404 99.2852 60.5574 99.4682C60.2829 99.7427 60.0185 99.7021 59.6932 99.7021C59.6627 99.5292 59.7338 99.275 59.7542 99.092C59.7847 98.8582 59.7745 98.6853 59.8965 98.5328C60.049 98.3396 60.5676 97.9024 60.6489 97.6889C60.5269 97.4856 60.2829 97.6686 60.1405 97.7702C59.9067 97.5262 59.8457 96.9874 59.6017 96.967C59.5508 97.211 59.5102 97.4754 59.5712 97.7906C59.378 97.8821 59.1136 97.8211 58.9916 97.7804C58.7679 97.3025 59.561 97.3229 59.4085 96.9263C59.1136 96.9772 59.0119 97.1094 58.9204 97.2924L58.7171 97.7906C58.6662 97.9126 58.4629 98.7362 58.4629 98.8683L59.4085 98.4311C59.5 98.8785 59.2255 99.0819 59.1848 99.4072C59.0119 99.4174 58.9001 99.3564 58.6561 99.3869C58.4731 99.4072 58.2595 99.4886 58.0867 99.4479C58.0664 99.2954 58.4934 98.299 58.5341 97.7702C58.5747 97.2009 59.2763 96.8247 58.8086 96.1129C58.3307 96.2858 58.6256 96.3671 57.9749 96.3773C57.9647 96.6417 58.0359 96.5908 57.9037 96.9162C57.7817 97.211 57.7715 97.0687 57.863 97.4754C57.924 97.7499 58.0054 97.7499 57.9139 98.0244C57.8427 98.2176 57.7308 98.2786 57.7003 98.5023C57.5783 98.5023 57.5682 98.4718 57.436 98.4515C57.2428 98.4311 56.7751 98.5226 56.6836 98.36C56.6531 98.1566 56.8564 98.0041 57.0496 97.8923C57.2936 97.7499 57.4868 97.7397 57.7207 97.6381L57.6292 97.1399C57.4766 97.0585 57.4055 97.1094 57.2733 96.9772C57.192 96.8958 57.0598 96.662 57.1716 96.5806C57.3343 96.4586 57.8732 96.4993 57.9037 96.1638C57.9444 95.7876 57.6393 95.6351 57.3851 95.9808C57.2631 96.1434 57.2631 96.1434 57.0598 96.0926C56.7853 96.0214 56.8666 96.1129 56.6937 96.1943L56.5412 95.9198C56.3989 95.9198 56.0125 96.0621 55.9312 96.1536C55.8905 96.2045 55.8498 96.5705 55.8295 96.6518C55.6465 96.7027 55.5143 96.6823 55.4736 96.8653C55.5448 96.9263 55.4533 96.8958 55.5957 96.9162C55.7685 96.9365 55.8397 96.8653 56.0024 96.8145C56.165 96.7637 56.3989 96.7535 56.5514 96.7433C56.5921 97.1297 56.0939 97.0382 55.9007 97.0687L55.9617 97.272C56.2362 97.2924 56.6226 97.15 56.8869 97.2822C56.8666 97.4754 56.6734 97.6889 56.3989 97.6381C56.0939 97.5872 56.1142 97.4347 55.9007 97.3025C55.8295 97.2619 55.4431 96.9975 55.3923 96.9874C55.1788 96.9467 54.8738 97.089 54.8433 97.2924C54.8636 97.4246 54.9754 97.4347 55.0466 97.5262L55.0974 97.6076C55.4838 97.5974 55.9109 97.5466 56.0939 97.9126C55.921 97.9838 55.6668 98.0753 55.4838 98.1261C55.2195 98.1973 55.189 98.1058 54.9958 98.0854C55.1991 98.6243 56.043 98.6447 56.2464 98.9497C55.5245 99.2649 55.0466 98.726 54.5179 98.8887C54.6094 99.2242 54.8636 99.0819 55.1076 99.1327C55.1585 99.3767 54.9653 99.3971 54.7416 99.4479C54.8636 99.8444 55.8397 100.068 56.165 99.9054C56.0024 99.8241 55.8397 99.8139 55.7685 99.5394C56.1244 99.4072 56.8869 99.0819 57.192 99.2039C57.2225 99.4682 56.8158 99.7427 56.6937 99.9359C56.7548 100.119 56.8869 100.302 57.0293 100.393C57.5682 100.241 57.375 100.068 58.4222 99.9664C58.4629 100.21 58.3511 100.363 58.1782 100.515C57.8732 100.79 57.9749 100.759 57.7918 100.973C57.5275 100.973 56.8158 100.922 56.6734 100.749L56.8971 100.495C56.8463 100.393 56.6429 100.068 56.5311 100.027C56.4396 100.007 55.6465 100.16 55.4736 100.19C55.1178 100.251 54.6704 100.393 54.7314 100.749C54.9653 100.831 55.1686 100.688 55.4228 100.688C55.5448 101.126 55.1381 101.136 54.8128 101.126C54.9449 101.288 55.2601 101.339 55.5448 101.319C55.494 101.654 55.6363 101.685 55.9515 101.675C56.2362 101.664 56.4294 101.614 56.7141 101.542C56.7649 101.908 56.3887 102.091 56.0024 102.081C55.433 102.061 55.5245 101.766 55.2805 101.563C55.0873 101.715 54.7924 102.02 55.0568 102.234C55.2906 102.417 55.494 102.386 55.8295 102.396C55.799 102.427 55.7583 102.457 55.7177 102.488C55.4431 102.569 55.1686 102.661 54.9144 102.762C54.9246 102.701 54.9551 102.651 54.9856 102.61C54.9449 102.579 54.8941 102.549 54.8433 102.508C54.8026 102.478 54.7721 102.447 54.7416 102.407C54.6094 102.244 54.5891 102.071 54.6297 101.888C54.6602 101.766 54.7213 101.644 54.8026 101.553C54.7009 101.502 54.6196 101.441 54.5484 101.349C54.4976 101.288 54.4671 101.207 54.4772 101.126C54.4772 101.085 54.4874 101.044 54.5077 101.004C54.4569 100.953 54.4264 100.892 54.4061 100.821C54.3451 100.465 54.5179 100.231 54.7823 100.068C54.8026 100.058 54.8229 100.048 54.8433 100.038C54.6704 99.9359 54.5281 99.8038 54.4569 99.6512C54.4467 99.6309 54.4366 99.6106 54.4264 99.5801C54.4162 99.5597 54.4162 99.5394 54.4061 99.5292C54.3959 99.4784 54.3959 99.4276 54.4061 99.3767C54.3247 99.3055 54.2434 99.1937 54.1925 99.0107V99.0005C54.1315 98.8175 54.2332 98.6243 54.4162 98.5633C54.5687 98.5125 54.7111 98.5023 54.8534 98.5226C54.7823 98.4413 54.7314 98.3498 54.6806 98.238C54.6602 98.1769 54.6501 98.1159 54.6501 98.0549C54.6602 97.9533 54.7213 97.8618 54.8026 97.8109L54.7721 97.7601L54.7619 97.7499C54.6501 97.6686 54.5382 97.5974 54.5077 97.3635C54.5077 97.333 54.5077 97.3025 54.5077 97.2619C54.5077 97.2517 54.5077 97.2415 54.5077 97.2314C54.5484 97.028 54.7009 96.8653 54.8839 96.7637C54.9754 96.7128 55.0873 96.6823 55.189 96.662C55.2601 96.479 55.3821 96.418 55.5347 96.3773C55.5652 96.2146 55.5957 96.0418 55.677 95.9401C55.7583 95.8486 55.921 95.7571 56.0837 95.6859C56.2464 95.6249 56.4396 95.5741 56.5514 95.5741C56.6632 95.5741 56.7649 95.6249 56.8259 95.7164C56.8971 95.7062 56.9886 95.7164 57.1208 95.7469C57.2428 95.5944 57.3851 95.4927 57.5275 95.4622C57.6495 95.4317 57.7715 95.4317 57.8833 95.4826C57.9952 95.5232 58.0867 95.6046 58.1477 95.7062L58.168 95.7266ZM59.5915 101.105C59.5407 101.166 59.5 101.227 59.4593 101.298C59.3373 101.258 59.2153 101.217 59.0424 101.217C58.9204 101.227 58.5646 101.268 58.4426 101.309C58.4629 101.705 58.3917 101.888 58.2087 102.071C57.6698 102.081 57.1004 102.163 56.5311 102.295C56.5209 102.274 56.5107 102.264 56.5107 102.244C56.7954 102.152 57.1106 102.091 57.4156 102L58.0765 101.776C58.0867 101.766 58.1477 101.746 58.1579 101.736C58.3511 101.593 58.1477 101.359 58.0969 101.187C58.2799 100.882 58.5849 100.8 58.9916 100.648C59.3576 100.505 59.6322 100.221 59.927 100.149C60.049 100.546 59.6322 100.81 59.439 101.065C59.4796 101.085 59.5305 101.095 59.5813 101.105H59.5915ZM62.3672 100.922H62.3571H62.3672Z" fill="white"/>
<path fill-rule="evenodd" clip-rule="evenodd" d="M63.0176 3.04955C69.8603 3.20206 77.3436 1.52442 83.4441 1.76844C87.9483 1.94129 89.9005 2.65302 89.8191 3.77144C89.9005 4.90004 87.9483 5.6016 83.4441 5.77444C77.3334 6.01846 69.8603 4.10697 63.0176 4.24932V3.76128V3.03938V3.04955Z" fill="#FEFEFE"/>
<path fill-rule="evenodd" clip-rule="evenodd" d="M77.4975 66.0582V58.7579H77.5076H77.5178H77.528H77.5381H77.5483H77.5585L77.6398 58.7782H77.65L77.6907 58.7884H77.7008H77.711H77.7212H77.7313H77.7415H77.7517L77.833 58.8087H77.8432H77.8533H77.8635H77.8737H77.8838H77.894H77.9042H77.9143H77.9245H77.9347H77.9448H77.955H77.9652H77.9753H77.9855H77.9957H78.0058H78.016H78.0262H78.0364H78.0465H78.0567H78.0669H78.077L78.1177 58.8189H78.1279H78.138H78.1482V65.926H77.5076L77.4975 66.0582ZM77.4975 50.0545V39.8057C77.711 39.887 77.9245 39.9683 78.138 40.0497V50.1969H78.1279H78.1177L77.8635 50.1359H77.8533H77.8432H77.833H77.8228H77.8127H77.8025L77.5381 50.0749H77.528H77.5178H77.5076H77.4975H77.4873L77.4975 50.0545Z" fill="#FEFEFE"/>
<path fill-rule="evenodd" clip-rule="evenodd" d="M74.1826 66.0594V57.8847C74.3961 57.9356 74.6097 57.9864 74.8232 58.0373V66.0594H74.1826ZM74.1826 49.405V38.6885C74.3961 38.7495 74.6097 38.8207 74.8232 38.8817V49.5169C74.6097 49.4762 74.3961 49.4457 74.1826 49.405Z" fill="#FEFEFE"/>
<path fill-rule="evenodd" clip-rule="evenodd" d="M72.21 66.0588V57.4571C72.515 57.5181 72.82 57.5791 73.125 57.6401V66.0588H72.21ZM72.21 49.0994V38.1592C72.515 38.2304 72.82 38.3117 73.125 38.393V49.2316C72.82 49.1808 72.515 49.1401 72.21 49.0994Z" fill="#FEFEFE"/>
<path fill-rule="evenodd" clip-rule="evenodd" d="M69.2002 66.0588V56.9487C69.6069 57.0097 70.0238 57.0707 70.4305 57.1419V66.0588H69.2002ZM69.2002 48.7232V37.5186C69.6171 37.5897 70.0238 37.6711 70.4305 37.7524V48.8655C70.0238 48.8147 69.6069 48.774 69.2002 48.7232Z" fill="#FEFEFE"/>
<path fill-rule="evenodd" clip-rule="evenodd" d="M67.0342 66.0588V56.6843C67.4409 56.725 67.8577 56.7758 68.2644 56.8267V66.0588H67.0342ZM67.0342 48.5198V37.1729C67.451 37.2237 67.8577 37.2847 68.2644 37.3457V48.6215C67.8577 48.5808 67.4409 48.5503 67.0342 48.5198Z" fill="#FEFEFE"/>
<path fill-rule="evenodd" clip-rule="evenodd" d="M65.1631 66.059V56.5117C65.5698 56.5422 65.9867 56.5829 66.3934 56.6235V66.0692H65.1631V66.059ZM65.1631 48.398V36.9697C65.58 37.0104 65.9867 37.0511 66.3934 37.1019V48.4794C65.9765 48.4488 65.5698 48.4183 65.1631 48.398Z" fill="#FEFEFE"/>
<path fill-rule="evenodd" clip-rule="evenodd" d="M62.1035 66.0594V56.3291C62.5102 56.3494 62.9271 56.3596 63.3338 56.3901V66.0594H62.1035ZM62.1035 48.2662V36.7871C62.5204 36.7973 62.9271 36.8176 63.3338 36.8379V48.3069C62.9169 48.2866 62.5102 48.2764 62.1035 48.2662Z" fill="#FEFEFE"/>
<path fill-rule="evenodd" clip-rule="evenodd" d="M59.9268 66.059V56.2779C60.4046 56.288 60.8825 56.288 61.3604 56.3084V66.059H59.9268ZM59.9268 48.2252V36.7664C60.4046 36.7562 60.8825 36.7562 61.3604 36.7664V48.2455C60.8825 48.2354 60.4046 48.2252 59.9268 48.2252Z" fill="#FEFEFE"/>
<path fill-rule="evenodd" clip-rule="evenodd" d="M56.1045 66.0591V56.3186C56.9992 56.2881 57.9041 56.2678 58.8091 56.2678V66.0489H56.1045V66.0591ZM56.1045 48.2761V36.797C56.9992 36.7665 57.9041 36.7563 58.8091 36.7665V48.2151C57.9041 48.2151 57.0094 48.2355 56.1045 48.266V48.2761Z" fill="#FEFEFE"/>
<path fill-rule="evenodd" clip-rule="evenodd" d="M39.1348 66.0595V59.2676C39.9279 59.0032 40.7107 58.7491 41.5038 58.5254L41.7783 66.0697H39.1348V66.0595ZM39.1348 50.7676V43.9147C39.1348 42.2268 38.9416 40.7322 40.1922 40.1832C40.6192 40.0002 41.0463 39.8476 41.4835 39.685L41.9512 50.0762C41.0158 50.2897 40.0804 50.5134 39.145 50.7676H39.1348ZM42.0325 50.0558L42.3884 39.3494C43.9339 38.8106 45.4996 38.3632 47.0756 37.9972L47.5637 46.5074L48.2042 37.7531C49.7395 37.4379 51.2951 37.1939 52.8711 37.0312L53.3591 47.0768L53.8472 36.9397C54.1929 36.9092 54.5487 36.8889 54.8944 36.8584V48.3274C50.5834 48.551 46.2927 49.1103 42.0224 50.0558H42.0325ZM54.9046 56.3597V66.0493H53.5625L53.9285 56.4207C54.2539 56.4004 54.5792 56.38 54.9046 56.3597ZM52.9524 56.4817L53.3185 66.0392H48.2144V57.0307C49.7903 56.7867 51.3765 56.6037 52.9626 56.4817H52.9524ZM47.0756 57.2239V66.0493H42.0834L42.3376 58.2712C43.9135 57.8441 45.4895 57.4985 47.0654 57.2239H47.0756Z" fill="#FEFEFE"/>
<path fill-rule="evenodd" clip-rule="evenodd" d="M80.2026 52.1693C73.2276 50.2375 66.3137 49.2716 59.4608 49.2513C52.3029 49.2309 45.2263 50.2782 38.1904 52.2405C37.0821 52.5455 37.2346 53.0132 37.2346 54.2333V56.4499C37.2346 57.9343 37.2143 57.7513 38.2717 57.4768C45.3178 55.667 52.3232 54.4875 59.4608 54.5079C66.2121 54.5282 73.0243 55.4636 79.8975 57.3446C80.8533 57.609 81.4227 57.4565 81.4328 57.2429C74.0309 54.9756 66.7103 53.8063 59.4507 53.6945C56.3496 53.6436 53.2485 53.786 50.1779 54.1317C53.2586 53.6741 56.3496 53.4098 59.4507 53.3386C66.7103 53.1759 74.0309 54.0605 81.4328 56.0432V55.667C74.0309 53.3996 66.7103 52.2303 59.4507 52.1185C56.3496 52.0677 53.2485 52.21 50.1779 52.5557C53.2586 52.0982 56.3496 51.8338 59.4507 51.7626C66.7103 51.6 74.0309 52.4845 81.4328 54.4672V54.091C74.0309 51.8236 66.7103 50.6544 59.4507 50.5425C56.3496 50.4917 53.2485 50.634 50.1779 50.9797C53.2586 50.5222 56.3496 50.2579 59.4507 50.1867C66.7103 50.024 74.0309 50.9086 81.4328 52.8912C81.4023 52.6676 80.8431 52.3422 80.1924 52.1592L80.2026 52.1693Z" fill="#FEFEFE"/>
<path d="M14.1127 83.5364C13.9195 83.5364 13.7568 83.5059 13.5942 83.4551V83.1399C13.5942 83.0077 13.5942 82.7942 13.6043 82.5095C13.6145 82.2248 13.6145 82.0215 13.6145 81.8791C13.5942 81.1064 13.584 80.5268 13.584 80.1405C13.584 78.9407 13.5942 78.046 13.6043 77.4562L13.6348 72.403C13.9398 72.342 14.2855 72.3115 14.6719 72.3115C15.0583 72.3115 15.4345 72.342 15.7903 72.403C15.8107 73.0944 15.8208 73.5621 15.8208 73.7959C15.8208 73.9484 15.8107 74.2941 15.7903 74.8127C15.77 75.3312 15.7598 75.7583 15.7598 76.0633C15.7598 76.5818 15.8005 76.8767 15.8717 76.9275C15.892 76.9275 16.0954 76.531 16.4919 75.7481C16.8884 74.9652 17.1121 74.4873 17.1935 74.3043C17.3053 74.04 17.4476 73.7553 17.6103 73.4299C17.773 73.1147 17.9052 72.8199 18.0069 72.5453C18.0069 72.5047 18.1695 72.464 18.5051 72.4335C18.8304 72.403 19.0948 72.3826 19.2981 72.3826C19.593 72.3826 19.8268 72.403 19.9997 72.4437C20.1014 73.7044 20.1522 75.1075 20.1522 76.653C20.1522 77.3749 20.142 78.3611 20.1115 79.6118C20.081 80.8624 20.0709 81.7673 20.0709 82.3163V83.4144C19.9183 83.4144 19.6642 83.4347 19.3286 83.4652C18.9931 83.4957 18.7389 83.5161 18.5661 83.5161C18.3119 83.5161 18.0882 83.4856 17.895 83.4347C17.9052 83.1907 17.9153 82.7637 17.9153 82.1333C17.9153 79.4796 17.8848 78.1476 17.8238 78.1476C17.7933 78.1476 17.7222 78.3001 17.6205 78.6153L17.468 79.083C17.3256 79.4796 17.1528 79.9066 16.9596 80.354C16.7664 80.8014 16.5224 81.3504 16.2275 82.0011C15.9327 82.6518 15.7192 83.1297 15.587 83.4246C15.4446 83.4246 15.2006 83.4347 14.8651 83.4652C14.5296 83.4957 14.2855 83.5059 14.1432 83.5059L14.1127 83.5364ZM21.7688 82.9874L21.5451 82.8145C21.23 82.4993 21.0571 82.1231 21.0164 81.6656C20.9859 81.5029 20.9554 81.2386 20.9351 80.8929C20.9351 80.5878 20.9148 80.293 20.8741 79.9981C20.8741 79.9778 20.8843 79.9676 20.8944 79.9676H20.9148C21.23 79.9981 21.5553 80.0185 21.901 80.0185C22.4602 80.0185 22.8263 80.0286 23.0194 80.049H23.0398L23.0601 80.0693C23.1109 80.2116 23.233 80.4048 23.416 80.6387C23.5583 80.8115 23.7515 80.9539 23.9955 81.0657C24.1684 81.1572 24.3921 81.1979 24.6361 81.1775C24.8801 81.147 25.0733 81.025 25.2156 80.8014C25.2868 80.6793 25.3275 80.537 25.3376 80.3946C25.3681 80.293 25.3783 80.1303 25.358 79.9066C25.3376 79.7134 25.297 79.5609 25.236 79.4186C25.1546 79.2762 25.0631 79.1542 24.9716 79.0729C24.7174 78.9102 24.4226 78.8085 24.0972 78.7882C23.8023 78.778 23.4973 78.7984 23.1821 78.8492C23.1211 78.6967 23.0804 78.5238 23.0703 78.351C23.0499 78.1578 23.0499 77.9646 23.0703 77.7511L23.1008 77.141C23.1211 76.9275 23.1211 76.7547 23.1008 76.6225V76.6022C23.294 76.5412 23.5176 76.4903 23.7718 76.4598C24.1074 76.4293 24.3615 76.3785 24.5242 76.3073C24.7886 76.226 24.9919 76.104 25.1343 75.9616C25.297 75.7989 25.3681 75.5346 25.3376 75.1889C25.3376 74.833 25.2258 74.5992 25.0123 74.4975C24.5446 74.2941 24.1785 74.2331 23.9345 74.3043C23.7413 74.3551 23.5583 74.4568 23.3651 74.6195C23.294 74.6805 23.233 74.7618 23.1923 74.8737C23.1516 74.9754 23.1109 75.1075 23.0804 75.2601C23.0499 75.4126 23.0296 75.5041 23.0194 75.5549C22.9889 75.5549 22.9483 75.5549 22.9076 75.5651C22.8669 75.5752 22.8059 75.5752 22.7449 75.5854C22.6737 75.5956 22.6127 75.5956 22.5517 75.5956C22.3992 75.5956 22.1552 75.6058 21.8502 75.6261C21.6875 75.6363 21.4638 75.6464 21.1893 75.6464C21.1181 75.6566 21.0469 75.6668 20.9656 75.6668H20.8843V75.6363C20.8843 75.4126 20.8639 75.1685 20.8334 74.894C20.8131 74.5788 20.8538 74.3246 20.9453 74.1213C21.0673 73.6638 21.291 73.2977 21.6163 73.0435C21.9213 72.7588 22.2975 72.5352 22.7449 72.3521C23.1821 72.1996 23.6397 72.098 24.1074 72.0675C24.6666 72.0471 25.1241 72.0878 25.5003 72.1793C25.9578 72.2708 26.3645 72.4335 26.7204 72.647C27.0763 72.8707 27.3508 73.135 27.5338 73.4604C27.6355 73.6231 27.7067 73.8061 27.7372 74.0095C27.7575 74.284 27.7677 74.4873 27.7575 74.6195C27.788 75.138 27.6965 75.6769 27.4931 76.2361C27.2796 76.7954 26.9644 77.1919 26.5374 77.4257C26.9034 77.7003 27.1983 78.0765 27.422 78.5645C27.6457 79.0525 27.7473 79.5202 27.727 79.9676L27.6762 80.9234C27.6558 81.2691 27.5847 81.5741 27.4525 81.8486C27.3 82.2045 27.0864 82.5095 26.8221 82.7738C26.5374 83.0484 26.2019 83.2416 25.8155 83.3534C25.4291 83.4754 24.9919 83.5466 24.5141 83.5466C23.9854 83.5466 23.538 83.5161 23.1821 83.4652C23.0398 83.4551 22.8873 83.4246 22.7449 83.3737L22.2874 83.2517C22.0637 83.1907 21.8908 83.1094 21.7587 82.9975L21.7688 82.9874ZM38.4639 72.3318L38.8909 83.3127C38.6062 83.3636 38.1995 83.3941 37.6505 83.3941C37.1116 83.3941 36.7863 83.4042 36.6947 83.4144H36.6744C36.6134 82.9569 36.5727 81.4724 36.5524 78.9712C36.5321 76.47 36.5016 74.9855 36.4304 74.5382L36.4101 74.5178C35.7492 74.406 35.1493 74.4162 34.5901 74.5483C34.5494 74.9754 34.5392 76.4497 34.5697 78.9712C34.6002 81.4927 34.5697 82.9365 34.4986 83.3026C34.3257 83.4042 33.9495 83.4347 33.3801 83.3839C32.8108 83.3331 32.4752 83.3331 32.3634 83.4042C32.2922 82.4383 32.2312 80.7505 32.1702 78.3408C32.1194 75.9209 32.1092 73.9688 32.1397 72.4742V72.4538H32.16H32.1905C33.7563 72.4538 35.8508 72.4132 38.4537 72.342L38.4639 72.3318ZM46.059 74.1213C46.1607 74.3653 46.2522 74.6907 46.3132 75.0974C46.3539 75.5244 46.364 76.043 46.3437 76.653C46.3234 77.0089 46.3132 77.5376 46.3132 78.2493C46.3132 78.9509 46.2929 79.4999 46.2624 79.8761L46.2115 80.3946C46.1607 81.2487 45.9573 81.9604 45.6117 82.5095C45.2965 82.9365 44.7576 83.2619 43.995 83.4652C43.4765 83.6178 42.8766 83.6788 42.2055 83.6178C41.6972 83.5771 41.26 83.4754 40.9143 83.3229C40.5686 83.1704 40.3042 82.8959 40.1415 82.5197C39.9077 82.1231 39.7857 81.5436 39.7653 80.781C39.7552 80.5675 39.7348 80.1811 39.7145 79.5914C39.684 79.0119 39.6738 78.5747 39.6637 78.2696C39.6535 77.9748 39.6535 77.5884 39.6535 77.1207C39.6637 76.653 39.6738 76.226 39.6942 75.8396C39.7145 74.6703 39.989 73.7756 40.5279 73.1554C40.6499 73.0334 40.7719 72.9317 40.8939 72.8707C41.5751 72.525 42.358 72.3725 43.2325 72.4132C44.1069 72.4538 44.8389 72.6978 45.4286 73.1554C45.7337 73.4299 45.9472 73.7451 46.0692 74.1111L46.059 74.1213ZM44.3814 77.9544L44.3509 76.8869L44.3305 76.7343C44.3204 76.6428 44.3102 76.5208 44.3 76.3683C44.2899 76.226 44.2797 76.0938 44.2797 75.9921C44.2289 75.3414 43.9543 74.894 43.4663 74.6602C43.0596 74.4975 42.6529 74.5687 42.2462 74.8839C41.8802 75.1889 41.6362 75.5447 41.504 75.9616C41.3616 76.653 41.3108 77.5071 41.3616 78.534C41.3718 78.6255 41.4023 78.9509 41.4531 79.5101C41.504 80.0693 41.5751 80.476 41.6565 80.7505C41.8598 81.1674 42.2157 81.4012 42.7444 81.4419C43.2731 81.4826 43.7002 81.3199 44.0255 80.9539C44.117 80.8319 44.1882 80.72 44.2289 80.6285C44.2695 80.537 44.2899 80.4557 44.3 80.4048C44.3102 80.3438 44.3102 80.232 44.3204 80.049C44.3305 79.8761 44.3305 79.7033 44.3407 79.5304C44.3407 79.4186 44.3407 79.2864 44.3509 79.1542C44.361 79.022 44.361 78.9102 44.3712 78.839C44.3814 78.7678 44.3814 78.7272 44.3814 78.717V77.9646V77.9544ZM55.0471 73.0435C55.0471 73.1147 55.0471 73.2672 55.0369 73.5011C55.0268 73.7349 55.0268 73.9281 55.0268 74.0806C55.0268 74.2128 55.0268 74.4365 55.0166 74.7517C55.0064 75.0669 55.0064 75.3211 55.0064 75.5041C55.0064 75.6973 55.0064 75.9616 54.9963 76.3175C54.9861 76.6733 54.9861 76.9377 54.9861 77.1207V78.7373C54.9861 78.9305 54.9861 79.1745 54.9963 79.4796C55.0064 79.7846 55.0064 80.0083 55.0064 80.1506C55.0064 80.3031 55.0064 80.4862 55.0166 80.6793C55.0268 80.8725 55.0268 81.0047 55.0268 81.0759C55.0369 81.3402 55.0573 81.4826 55.0776 81.5029C55.0979 81.5334 55.1589 81.5537 55.2505 81.5537C55.281 81.5436 55.3623 81.5436 55.4843 81.5537C55.6063 81.5639 55.6877 81.5741 55.708 81.5741H56.0842C56.1554 81.5741 56.2062 81.5944 56.2367 81.6249C56.257 81.6859 56.2672 81.7876 56.2672 81.9198C56.2672 82.2248 56.257 82.4485 56.2469 82.6112L56.196 83.3839L56.1655 84.1566C56.1554 84.3193 56.1452 84.5328 56.1452 84.787C56.1452 84.9192 56.1554 85.031 56.1757 85.1124C55.83 85.0819 55.6165 85.0514 55.5453 85.031C55.4335 85.0209 55.2403 85.0107 54.9658 85.0107C54.7929 85.0107 54.6607 85.0209 54.5692 85.031C54.376 85.031 54.254 85.0514 54.1727 85.0819C54.132 85.0819 54.1015 84.9904 54.0812 84.8175V84.2481L54.132 83.4144C54.1015 83.4246 54.071 83.4347 54.0304 83.4347C53.9897 83.4347 53.9287 83.4246 53.8473 83.4144C53.766 83.4042 53.6948 83.3941 53.644 83.3941C53.2983 83.3941 53.0543 83.3839 52.9221 83.3636C52.8204 83.3636 52.6679 83.3636 52.4544 83.3636C52.251 83.3636 52.0884 83.3534 51.9562 83.3432C51.5901 83.3127 51.214 83.2924 50.8276 83.2924C50.4514 83.2721 50.0752 83.2721 49.699 83.2924C49.3228 83.3127 48.9974 83.3534 48.7229 83.4042L48.6721 85.0514C48.4789 85.031 48.3467 85.0209 48.2654 85.0209C48.2247 85.0209 48.1535 85.0209 48.0417 85.0107C47.94 85.0005 47.8485 85.0107 47.7875 85.0209C47.7468 85.0209 47.6045 85.0107 47.3605 85.0005C47.1164 84.9904 46.9741 84.9802 46.9334 84.9802C46.8419 84.9904 46.7301 84.9802 46.6182 84.9497C46.6386 84.9294 46.6487 84.8277 46.6487 84.6345V84.0041L46.6182 83.2517L46.5674 82.4993C46.5674 82.418 46.5674 82.3061 46.5572 82.1841C46.5471 82.0621 46.5471 81.9706 46.5471 81.9198C46.5471 81.7063 46.5674 81.5639 46.5979 81.4622C46.6182 81.4724 46.8216 81.4826 47.208 81.4826C47.5943 81.4826 47.818 81.4724 47.8688 81.4521C47.9095 81.3707 47.9705 81.2487 48.062 81.1064C48.1434 80.964 48.2044 80.8319 48.2552 80.7302C48.367 80.5167 48.4891 80.2218 48.6111 79.8354C48.7229 79.3271 48.8246 78.839 48.8958 78.3917C48.9669 77.9443 49.0076 77.4257 49.0076 76.836V72.586C49.0991 72.525 49.3126 72.4843 49.6482 72.464C49.8617 72.4335 50.2379 72.4233 50.7971 72.4437L52.1595 72.5047C52.312 72.5148 52.5459 72.525 52.8408 72.5352C53.1356 72.5453 53.3593 72.5657 53.5118 72.586C53.7253 72.6063 54.0202 72.6267 54.4167 72.6368C54.8133 72.647 55.0064 72.647 55.0166 72.6165V72.7283C55.0166 72.7487 55.0166 72.7894 55.0064 72.8605C54.9963 72.9317 54.9963 72.9927 54.9963 73.0435H55.0471ZM51.1733 74.2636V77.2631C51.1733 77.7918 51.1428 78.3103 51.0818 78.8187C51.0208 79.2762 50.8988 79.7439 50.7259 80.2015C50.6954 80.3743 50.6242 80.537 50.5226 80.6692C50.4006 80.8725 50.2989 81.0047 50.2277 81.0962C50.1565 81.1877 50.0955 81.2996 50.0345 81.4216C50.0345 81.4826 50.2785 81.5232 50.7564 81.5334H51.8748C51.9562 81.5436 52.068 81.5436 52.2002 81.5334C52.3324 81.5232 52.4341 81.5131 52.4951 81.5131C52.6171 81.5232 52.7289 81.5334 52.8103 81.5334C52.8509 81.5334 52.8713 81.4826 52.8713 81.3809C52.8814 81.3402 52.8916 81.1877 52.8916 80.9437C52.8713 80.5777 52.8713 80.1303 52.8916 79.5914C52.8916 79.0525 52.9119 78.473 52.9424 77.8629C52.9526 77.7104 52.9729 77.1309 53.0034 76.1548C53.0238 75.9108 53.0339 75.4736 53.0339 74.8229C53.0339 74.467 53.0136 74.284 52.9729 74.2738C52.9526 74.2433 52.8713 74.223 52.7187 74.223C52.6781 74.223 52.5866 74.2128 52.4341 74.2026C52.2917 74.1823 52.1799 74.1823 52.1087 74.1925C52.0579 74.2026 51.9053 74.2128 51.6512 74.223C51.397 74.2331 51.2445 74.2535 51.1835 74.2738L51.1733 74.2636ZM67.1464 72.3318L67.5735 83.3127C67.2888 83.3636 66.8821 83.3941 66.333 83.3941C65.7942 83.3941 65.4688 83.4042 65.3773 83.4144H65.357C65.296 82.9569 65.2553 81.4724 65.235 78.9712C65.2146 76.47 65.1841 74.9855 65.1129 74.5382L65.0926 74.5178C64.4317 74.406 63.8318 74.4162 63.2726 74.5483C63.232 74.9754 63.2218 76.4497 63.2523 78.9712C63.2828 81.4927 63.2523 82.9365 63.1811 83.3026C63.0083 83.4042 62.6321 83.4347 62.0627 83.3839C61.4933 83.3331 61.1578 83.3331 61.0459 83.4042C60.9748 82.4383 60.9138 80.7505 60.8528 78.3408C60.8019 75.9209 60.7918 73.9688 60.8223 72.4742V72.4538H60.8426H60.8731C62.4389 72.4538 64.5334 72.4132 67.1363 72.342L67.1464 72.3318ZM75.494 75.7074V75.7278C75.494 75.9209 75.4838 76.0531 75.4736 76.1345C75.3516 77.1309 74.8534 77.9443 73.979 78.5848C73.1148 79.2254 72.1794 79.4592 71.1829 79.2864C71.1931 79.4389 71.2033 79.6219 71.2033 79.8253C71.2033 80.0286 71.2033 80.4353 71.2135 81.0352C71.2236 81.6351 71.2338 82.3671 71.2541 83.2212V83.2416C71.244 83.2416 71.2236 83.2517 71.2033 83.2619C70.9288 83.3331 70.5119 83.3737 69.9425 83.3839C69.3731 83.3941 68.9156 83.3737 68.5902 83.3331C68.5496 82.3163 68.5292 80.5675 68.5394 78.0968C68.5496 75.6159 68.5292 73.7654 68.4886 72.525C69.18 72.3318 69.9018 72.2403 70.6644 72.2403C71.427 72.2403 72.159 72.3318 72.8809 72.525C73.6028 72.7182 74.2129 73.0842 74.7009 73.6333C75.1889 74.1823 75.4635 74.8839 75.5041 75.7278L75.494 75.7074ZM72.7487 75.0465C72.22 74.6195 71.5693 74.4975 70.8169 74.6907C70.7966 74.6907 70.7762 74.7008 70.7661 74.711C70.7864 74.9855 70.7966 75.2499 70.7864 75.5142C70.7762 75.7786 70.7763 76.0531 70.7966 76.3581C70.8169 76.653 70.8474 76.897 70.9186 77.0699H70.9694C71.0406 77.0699 71.2135 77.0597 71.4778 77.0495C71.7422 77.0394 71.9455 77.0292 72.0777 77.0089C72.2099 76.9885 72.3827 76.9479 72.5759 76.8869C72.7691 76.8157 72.9216 76.7242 73.0436 76.6123C73.2368 76.3683 73.2978 76.0938 73.247 75.7684C73.1961 75.4532 73.0334 75.2092 72.7589 75.0567L72.7487 75.0465ZM82.7943 81.2792V81.3097C82.8553 82.1536 82.8146 82.845 82.6722 83.3636C82.1842 83.3636 81.4928 83.3737 80.6184 83.3839C79.744 83.4042 78.9408 83.4042 78.229 83.4042C77.5173 83.4042 76.8564 83.3737 76.2565 83.3229C76.2565 82.5298 76.2464 81.3911 76.2159 79.9269C76.1854 78.4527 76.1752 77.1309 76.1752 75.9616C76.1752 74.7822 76.2057 73.6638 76.2667 72.5962C77.4766 72.5352 78.8594 72.4945 80.4049 72.4742C81.9504 72.4538 82.7332 72.464 82.7434 72.5047C82.7739 72.7283 82.7943 72.952 82.7943 73.2062C82.7943 73.4502 82.7841 73.7248 82.7739 74.0298C82.7536 74.3348 82.7536 74.5687 82.7536 74.7313V74.7517C82.2554 74.8635 81.5741 74.9144 80.7201 74.9042C79.866 74.894 79.1746 74.9042 78.6459 74.9347H78.5951L78.5747 74.955C78.5747 75.0262 78.5646 75.3414 78.5341 75.9006C78.5036 76.4598 78.5239 76.7547 78.5849 76.7954L78.6052 76.8157C78.7984 76.8259 78.9916 76.836 79.2051 76.836C79.4186 76.8462 79.6627 76.8462 79.9168 76.8564C80.1812 76.8665 80.3845 76.8665 80.5269 76.8665V76.8869C80.5777 76.9275 80.5981 77.2834 80.5777 77.9544C80.5574 78.6255 80.5574 78.9915 80.5574 79.0729C80.3439 79.1339 79.9982 79.1644 79.5 79.1644C79.0018 79.1644 78.7272 79.1949 78.6561 79.2457C78.5747 79.6931 78.5747 80.354 78.6561 81.2081L78.6764 81.2284C79.0323 81.2284 79.6728 81.2487 80.5879 81.2792C81.5131 81.3199 82.2452 81.3199 82.7841 81.2996L82.7943 81.2792ZM86.1089 75.0974C86.0885 75.138 86.0682 75.4329 86.0377 75.9921C86.0072 76.5513 85.997 77.1512 85.9869 77.8121C85.9767 78.473 85.997 79.0627 86.0377 79.5812C86.119 80.3947 86.4241 80.8827 86.9324 81.025C87.4713 81.0759 87.8475 80.8929 88.0509 80.476C88.1424 80.2828 88.1932 80.0083 88.2034 79.6423C88.2135 79.2762 88.2339 79.0322 88.2542 78.9204C88.3965 78.9407 88.7524 78.9509 89.3015 78.9407C89.8607 78.9305 90.2064 78.961 90.3487 79.022C90.5521 79.7744 90.5622 80.4862 90.3792 81.1572C90.2064 81.8283 89.8302 82.3977 89.2608 82.8654C88.6914 83.3331 88.0305 83.5771 87.2883 83.5873C87.2273 83.5873 87.0443 83.5974 86.7494 83.6076C86.4546 83.6279 86.2715 83.6178 86.2105 83.5974C85.2853 83.4957 84.6142 83.0077 84.1872 82.1333C84.0449 81.8283 83.933 81.4724 83.8517 81.0657C83.7703 80.659 83.7297 80.3336 83.7195 80.0896C83.7093 79.8456 83.6992 79.4796 83.689 78.9712C83.6687 77.7511 83.6687 76.836 83.689 76.226C83.689 76.165 83.6992 76.0023 83.7093 75.7481C83.7195 75.4939 83.7297 75.3211 83.7297 75.2194C83.7398 75.1279 83.75 74.9652 83.7602 74.7313C83.7805 74.4975 83.8008 74.3348 83.8313 74.223C83.8618 74.1111 83.9025 73.9586 83.9533 73.7654C84.0042 73.5722 84.0652 73.4197 84.1465 73.2977C84.2177 73.1859 84.3092 73.0537 84.4211 72.9215C84.5329 72.7894 84.6549 72.6673 84.7871 72.5758C85.3971 72.1691 86.058 71.9658 86.7901 71.9759C87.5221 71.9861 88.183 72.1895 88.7931 72.5758C89.515 73.0232 90.0234 73.6434 90.3284 74.4162C90.6334 75.1991 90.6436 75.9819 90.3792 76.775C89.8098 76.897 89.0473 76.8767 88.0915 76.714C88.0712 76.6022 88.0509 76.4192 88.0407 76.1853C88.0305 75.9413 88.0102 75.7481 87.9899 75.5956C87.9695 75.4431 87.9288 75.2804 87.8678 75.1075C87.8068 74.9347 87.7052 74.8025 87.5526 74.7212C87.4103 74.6398 87.2171 74.5992 86.9833 74.6093C86.5562 74.6805 86.2919 74.7618 86.2004 74.8635C86.1699 74.894 86.1394 74.9652 86.1089 75.0669V75.0974ZM93.9378 75.0974C93.9175 75.138 93.8972 75.4329 93.8667 75.9921C93.8362 76.5513 93.826 77.1512 93.8158 77.8121C93.8057 78.473 93.826 79.0627 93.8667 79.5812C93.948 80.3947 94.253 80.8827 94.7614 81.025C95.3003 81.0759 95.6765 80.8929 95.8798 80.476C95.9713 80.2828 96.0222 80.0083 96.0324 79.6423C96.0425 79.2762 96.0629 79.0322 96.0832 78.9204C96.2255 78.9407 96.5814 78.9509 97.1304 78.9407C97.6897 78.9305 98.0354 78.961 98.1777 79.022C98.381 79.7744 98.3912 80.4862 98.2082 81.1572C98.0354 81.8283 97.6592 82.3977 97.0898 82.8654C96.5204 83.3331 95.8595 83.5771 95.1173 83.5873C95.0563 83.5873 94.8733 83.5974 94.5784 83.6076C94.2835 83.6279 94.1005 83.6178 94.0395 83.5974C93.1143 83.4957 92.4432 83.0077 92.0162 82.1333C91.8738 81.8283 91.762 81.4724 91.6807 81.0657C91.5993 80.659 91.5587 80.3336 91.5485 80.0896C91.5383 79.8456 91.5281 79.4796 91.518 78.9712C91.4976 77.7511 91.4976 76.836 91.518 76.226C91.518 76.165 91.5281 76.0023 91.5383 75.7481C91.5485 75.4939 91.5586 75.3211 91.5586 75.2194C91.5688 75.1279 91.579 74.9652 91.5892 74.7313C91.6095 74.4975 91.6298 74.3348 91.6603 74.223C91.6908 74.1111 91.7315 73.9586 91.7823 73.7654C91.8332 73.5722 91.8942 73.4197 91.9755 73.2977C92.0467 73.1859 92.1382 73.0537 92.25 72.9215C92.3619 72.7894 92.4839 72.6673 92.6161 72.5758C93.2261 72.1691 93.887 71.9658 94.6191 71.9759C95.3511 71.9861 96.012 72.1895 96.6221 72.5758C97.344 73.0232 97.8523 73.6434 98.1574 74.4162C98.4624 75.1991 98.4726 75.9819 98.2082 76.775C97.6388 76.897 96.8763 76.8767 95.9205 76.714C95.9002 76.6022 95.8798 76.4192 95.8697 76.1853C95.8595 75.9413 95.8392 75.7481 95.8188 75.5956C95.7985 75.4431 95.7578 75.2804 95.6968 75.1075C95.6358 74.9347 95.5341 74.8025 95.3816 74.7212C95.2393 74.6398 95.0461 74.5992 94.8123 74.6093C94.3852 74.6805 94.1209 74.7618 94.0294 74.8635C93.9988 74.894 93.9683 74.9652 93.9378 75.0669V75.0974ZM104.187 77.9036L105.366 83.3941V83.4144C104.746 83.5364 104.044 83.5161 103.261 83.3534H103.241C103.17 83.15 103.048 82.7332 102.895 82.0926C102.743 81.4521 102.611 81.0149 102.499 80.8014C102.448 80.7607 102.275 80.7505 101.991 80.7607C101.706 80.781 101.553 80.781 101.523 80.781C101.441 80.9844 101.34 81.4012 101.218 82.0621C101.096 82.7128 100.974 83.1602 100.831 83.4042C100.821 83.4042 100.801 83.4144 100.781 83.4246C100.648 83.4347 100.537 83.4347 100.455 83.4347C100.374 83.4246 100.14 83.4246 99.7537 83.4144C99.3673 83.4042 98.9809 83.4042 98.5844 83.4042C98.5742 83.4042 98.5641 83.3941 98.5539 83.3839C98.5641 83.3636 98.6657 82.7738 98.8691 81.6148C99.0724 80.4557 99.3571 79.0017 99.7333 77.2732C100.11 75.5346 100.516 73.9281 100.953 72.4437C101.096 72.4233 101.208 72.4132 101.279 72.4233C101.35 72.4335 101.533 72.4335 101.838 72.4233C102.143 72.4132 102.489 72.3928 102.885 72.3623L104.177 77.9138L104.187 77.9036ZM102.59 78.9204C102.336 76.7547 102.143 75.6668 102.011 75.6363C101.96 75.6261 101.909 75.7278 101.858 75.9311C101.828 76.043 101.685 77.0394 101.431 78.9102H102.59V78.9204Z" fill="white"/>
<path d="M58.9616 65.8447L117.211 66.4649L58.9616 67.0852L0.711914 66.4649L58.9616 65.8447Z" fill="white"/>
<path d="M63.1109 99.1035L105.479 99.6729L63.5684 100.242C63.5481 100.059 63.4871 99.8864 63.4057 99.7237C63.3447 99.6119 63.2634 99.5102 63.182 99.4187V99.4085C63.1719 99.317 63.1515 99.2052 63.121 99.1035H63.1109ZM53.6652 100.222L13.4629 99.6831L53.3907 99.1442C53.4009 99.1747 53.4009 99.2052 53.4111 99.2255L53.4314 99.2865C53.4721 99.4187 53.5229 99.5306 53.5839 99.6322L53.6042 99.6729L53.6144 99.7034L53.6246 99.7339C53.6246 99.7542 53.6347 99.7746 53.6449 99.7847C53.6551 99.8152 53.6652 99.8356 53.6652 99.8559L53.6957 99.9271C53.7059 99.9474 53.7059 99.9576 53.7161 99.9779L53.7262 99.9983L53.7466 100.039C53.7161 100.1 53.6856 100.171 53.6551 100.232L53.6652 100.222Z" fill="white"/>
<path fill-rule="evenodd" clip-rule="evenodd" d="M60.9043 101.605C62.7039 101.045 66.1406 103.526 66.0389 104.401C66.0084 104.36 65.9779 104.319 65.9474 104.279C64.5849 103.353 63.0496 102.733 61.3313 102.255C62.6124 102.459 63.8224 102.845 64.9815 103.353C63.8325 102.449 62.1549 101.564 60.9043 101.615V101.605Z" fill="#FEFEFE"/>
<path fill-rule="evenodd" clip-rule="evenodd" d="M65.8559 104.523C64.3206 105.072 62.4599 104.563 60.9145 103.953L60.9043 103.902C62.5413 104.34 64.3002 104.604 65.8559 104.523Z" fill="#FEFEFE"/>
<mask id="mask0" mask-type="alpha" maskUnits="userSpaceOnUse" x="53" y="102" width="8" height="5">
<path fill-rule="evenodd" clip-rule="evenodd" d="M53.3694 104.563C54.0812 105.814 59.7343 106.973 60.4867 104.726C60.5579 104.502 60.446 104.248 60.4257 103.963C60.385 103.587 60.385 103.292 60.1715 103.068C58.5752 101.38 52.8306 103.617 53.3796 104.563H53.3694Z" fill="#884843"/>
</mask>
<g mask="url(#mask0)">
<path fill-rule="evenodd" clip-rule="evenodd" d="M59.3583 103.079C57.7823 102.052 53.7966 103.486 53.6543 104.35C53.695 104.319 53.7356 104.289 53.7763 104.258C55.3421 103.74 56.9892 103.567 58.7686 103.577C57.4874 103.425 56.2165 103.455 54.9557 103.628C56.308 103.069 58.1687 102.693 59.3481 103.079H59.3583Z" fill="#FEFEFE"/>
<path fill-rule="evenodd" clip-rule="evenodd" d="M53.7969 104.532C55.2407 105.559 57.386 105.498 59.1247 105.295C57.3148 105.305 55.3728 105.071 53.7969 104.532Z" fill="#FEFEFE"/>
</g>
<path d="M44.0559 89.6764C44.0457 89.6968 44.0355 89.7984 44.0254 90.0018C44.0152 90.2051 44.005 90.4288 44.005 90.6627C44.005 90.9067 44.005 91.1202 44.0254 91.3134C44.0559 91.6082 44.1677 91.7913 44.3507 91.8421C44.5541 91.8624 44.6862 91.7913 44.7574 91.6388C44.7879 91.5676 44.8083 91.4659 44.8184 91.3337C44.8184 91.2015 44.8286 91.11 44.8388 91.0694C44.8896 91.0795 45.0218 91.0795 45.2251 91.0795C45.4285 91.0795 45.5607 91.0897 45.6115 91.11C45.6827 91.3846 45.6928 91.6489 45.6217 91.8929C45.5607 92.137 45.4183 92.3505 45.215 92.5233C45.0014 92.6962 44.7676 92.7877 44.4931 92.7877C44.4727 92.7877 44.4016 92.7877 44.2999 92.7978C44.188 92.808 44.127 92.7978 44.1067 92.7978C43.7712 92.7572 43.5271 92.5843 43.3645 92.259C43.3136 92.1471 43.273 92.015 43.2425 91.8726C43.212 91.7201 43.2018 91.6082 43.1916 91.5167C43.1916 91.4252 43.1815 91.2931 43.1815 91.11C43.1713 90.6627 43.1713 90.3271 43.1815 90.1035C43.1815 90.0831 43.1815 90.0221 43.1916 89.9306C43.1916 89.8391 43.2018 89.7679 43.2018 89.7374C43.2018 89.7069 43.212 89.6459 43.212 89.5544C43.2221 89.4731 43.2221 89.4121 43.2425 89.3714C43.2526 89.3307 43.273 89.2799 43.2933 89.2087C43.3136 89.1375 43.334 89.0765 43.3645 89.0359C43.395 88.9952 43.4255 88.9444 43.4661 88.8935C43.5068 88.8427 43.5475 88.802 43.5983 88.7715C43.822 88.619 44.066 88.5478 44.3304 88.558C44.5947 88.558 44.8388 88.6393 45.0624 88.7715C45.3268 88.9342 45.5098 89.1579 45.6217 89.4426C45.7335 89.7273 45.7335 90.012 45.642 90.3068C45.4386 90.3576 45.154 90.3475 44.8083 90.2865C44.7981 90.2458 44.7981 90.1746 44.7879 90.0933C44.7879 90.0018 44.7778 89.9306 44.7676 89.8798C44.7574 89.8289 44.7473 89.7679 44.7167 89.6968C44.6964 89.6358 44.6557 89.5849 44.6049 89.5544C44.5541 89.5239 44.4829 89.5137 44.4016 89.5137C44.249 89.5442 44.1474 89.5747 44.1169 89.6052C44.1067 89.6154 44.0965 89.6459 44.0864 89.6764H44.0559ZM48.0314 90.8152C48.0924 90.8864 48.1229 90.927 48.133 90.9474C48.1432 90.9677 48.1737 91.0084 48.2245 91.0694C48.2754 91.1304 48.3059 91.1812 48.316 91.2117C48.3262 91.2422 48.3466 91.2829 48.3771 91.3541C48.4076 91.4151 48.4279 91.4761 48.4279 91.5167C48.4381 91.5676 48.4381 91.6184 48.4381 91.6896C48.4381 91.7506 48.4279 91.8218 48.4177 91.8929C48.3974 92.0251 48.3567 92.137 48.2957 92.2386C48.2347 92.3403 48.1737 92.4217 48.1025 92.4827C48.0314 92.5437 47.9399 92.5945 47.828 92.6352C47.7162 92.6758 47.6145 92.7063 47.523 92.7165C47.4315 92.7368 47.3095 92.7368 47.1773 92.747C47.0349 92.747 46.9231 92.747 46.8316 92.747C46.7401 92.747 46.6181 92.7368 46.4757 92.7267C46.3334 92.7165 46.2215 92.7165 46.1504 92.7063C46.0894 92.7063 46.0385 92.7063 46.0284 92.6962C46.008 92.3301 46.008 91.6693 46.008 90.7237C46.0182 89.7679 46.0182 89.1172 46.008 88.7512L46.0182 88.741C46.2114 88.6902 46.4147 88.6495 46.6079 88.6292C46.8113 88.6088 47.0044 88.6088 47.218 88.6393C47.4213 88.6698 47.6043 88.7207 47.767 88.802C47.9297 88.8834 48.0517 89.0054 48.1534 89.1782C48.255 89.3511 48.3059 89.5544 48.3059 89.8086C48.3059 90.0933 48.2144 90.3881 48.0212 90.7033C48.0009 90.7338 48.011 90.7745 48.0517 90.8254L48.0314 90.8152ZM47.4925 91.7709C47.5738 91.6591 47.5738 91.5269 47.5128 91.3439C47.462 91.2422 47.3806 91.171 47.2688 91.1507C47.2078 91.1304 47.1264 91.1202 47.0146 91.1202C46.9028 91.11 46.8418 91.11 46.8214 91.11C46.7299 91.4862 46.7299 91.7608 46.8418 91.9133L46.8519 91.9234C46.8621 91.9234 46.9028 91.9234 46.9739 91.9234C47.0451 91.9234 47.0959 91.9234 47.1264 91.9234C47.157 91.9234 47.1976 91.9133 47.2586 91.9133C47.3095 91.9031 47.3603 91.8929 47.401 91.8624C47.4416 91.8421 47.4721 91.8116 47.5026 91.7811L47.4925 91.7709ZM47.4823 90.134C47.5637 89.9916 47.584 89.8798 47.5331 89.7883C47.4721 89.6764 47.3806 89.6052 47.2485 89.5747C47.0349 89.5341 46.8824 89.5442 46.7909 89.5951C46.7909 89.6256 46.7909 89.7273 46.7808 89.9204C46.7706 90.1035 46.7808 90.2356 46.8113 90.3068C47.1671 90.3576 47.3908 90.2966 47.4721 90.134H47.4823ZM51.2036 91.9336V91.9438C51.224 92.2488 51.2138 92.503 51.1528 92.6962C50.9698 92.6962 50.7257 92.6962 50.4004 92.7063C50.075 92.7165 49.7903 92.7165 49.526 92.7165C49.2616 92.7165 49.0278 92.7063 48.8041 92.686C48.8041 92.3911 48.8041 91.9844 48.7939 91.4456C48.7838 90.9067 48.7838 90.4187 48.7838 89.9916C48.7838 89.5646 48.7939 89.1477 48.8143 88.7613C49.2616 88.741 49.7598 88.7207 50.3292 88.7105C50.8986 88.7003 51.1833 88.7105 51.1833 88.7207C51.1935 88.802 51.2036 88.8834 51.2036 88.9749C51.2036 89.0664 51.2036 89.168 51.1935 89.2799C51.1833 89.3917 51.1833 89.4731 51.1833 89.5341V89.5442C51.0003 89.5849 50.7563 89.6052 50.4411 89.6052C50.1259 89.6052 49.8717 89.6052 49.6785 89.6154H49.6582L49.648 89.6256C49.648 89.6561 49.648 89.7679 49.6378 89.9713C49.6277 90.1746 49.6378 90.2865 49.6582 90.2966L49.6683 90.3068C49.7395 90.3068 49.8107 90.317 49.892 90.317C49.9734 90.317 50.0547 90.317 50.1564 90.3271C50.2479 90.3271 50.3292 90.3271 50.3801 90.3271V90.3373C50.4004 90.3576 50.4106 90.4797 50.4004 90.7237C50.3902 90.9677 50.3902 91.0999 50.3902 91.1304C50.3089 91.1507 50.1869 91.1609 50.0039 91.1609C49.8208 91.1609 49.7192 91.171 49.6988 91.1914C49.6683 91.3541 49.6683 91.5981 49.6988 91.9133L49.709 91.9234C49.8412 91.9234 50.075 91.9336 50.4106 91.9438C50.7461 91.9539 51.0104 91.9641 51.2138 91.9539L51.2036 91.9336ZM54.5487 90.622L55.5452 92.686C55.4333 92.7165 55.291 92.7267 55.1385 92.7165C55.1079 92.7165 54.9656 92.7063 54.7317 92.6962C54.6504 92.6148 54.5792 92.503 54.4979 92.3708C54.4166 92.2285 54.3454 92.0861 54.2945 91.9641C54.2742 91.9336 54.2539 91.8624 54.2132 91.7709C54.1725 91.6794 54.142 91.6082 54.1115 91.5574C54.0404 91.3947 53.9794 91.2727 53.9285 91.1914C53.9183 91.3032 53.9183 91.4151 53.9285 91.5574C53.9285 91.7303 53.9285 91.8624 53.9387 91.9438C53.9387 91.9844 53.9387 92.0455 53.9387 92.137C53.9387 92.2183 53.9387 92.2895 53.9387 92.3301C53.9387 92.4217 53.9489 92.5335 53.9489 92.686C53.9285 92.6962 53.8675 92.7063 53.7557 92.7063C53.6845 92.7165 53.6032 92.7267 53.5218 92.7267C53.4405 92.7267 53.3591 92.7165 53.288 92.7063C53.1863 92.6962 53.1253 92.686 53.0948 92.686C53.0744 92.381 53.0744 92.0455 53.0744 91.6794C53.0744 91.4761 53.0744 91.3337 53.0846 91.2219V91.2117C53.0338 91.2931 52.9728 91.4151 52.9016 91.5777L52.7084 91.9946L52.5051 92.4013C52.4237 92.5437 52.3424 92.6555 52.2712 92.7368C52.1492 92.7368 52.017 92.747 51.8645 92.7572C51.7323 92.7572 51.59 92.747 51.4578 92.7267L52.4542 90.6627C52.3729 90.4797 52.2915 90.317 52.2102 90.1746C52.1899 90.1441 52.1492 90.073 52.078 89.9611C52.0069 89.8493 51.956 89.7578 51.9255 89.6866C51.895 89.6358 51.8137 89.4731 51.6612 89.1985C51.5798 89.0562 51.5188 88.8935 51.468 88.7207C51.5798 88.7003 51.712 88.6902 51.8645 88.7003C52.0069 88.7105 52.139 88.7105 52.261 88.7003C52.3424 88.802 52.4136 88.924 52.4746 89.046L52.6677 89.3917C52.7593 89.5646 52.8203 89.6764 52.8609 89.7374C52.9321 89.8696 53.0033 89.9814 53.0744 90.0628L53.0948 90.0831C53.0948 89.9001 53.0948 89.7578 53.1049 89.6663C53.1049 89.4324 53.1151 89.0969 53.1151 88.6495C53.288 88.6495 53.4201 88.6495 53.5116 88.6597C53.6032 88.6597 53.7252 88.6698 53.898 88.6698C53.9082 88.9647 53.9082 89.1985 53.9082 89.3714C53.9082 89.5341 53.9082 89.7679 53.9183 90.0628L53.9285 90.0526L53.9489 90.0221C54.0302 89.9204 54.1014 89.8086 54.1624 89.6968L54.3556 89.3511L54.5487 89.0054C54.6199 88.8732 54.6911 88.7613 54.7623 88.6597C54.8843 88.6698 55.0164 88.6698 55.1588 88.6597C55.3011 88.6597 55.4333 88.6597 55.5553 88.68C55.5146 88.8224 55.4435 88.985 55.3621 89.168C55.2706 89.3511 55.1791 89.5137 55.0978 89.6561L54.8131 90.1543C54.7012 90.3475 54.6199 90.5102 54.5691 90.6423L54.5487 90.622ZM58.2904 91.9336V91.9438C58.3107 92.2488 58.3005 92.503 58.2395 92.6962C58.0565 92.6962 57.8125 92.6962 57.4871 92.7063C57.1618 92.7165 56.8771 92.7165 56.6127 92.7165C56.3484 92.7165 56.1145 92.7063 55.8908 92.686C55.8908 92.3911 55.8908 91.9844 55.8807 91.4456C55.8705 90.9067 55.8705 90.4187 55.8705 89.9916C55.8705 89.5646 55.8807 89.1477 55.901 88.7613C56.3484 88.741 56.8466 88.7207 57.416 88.7105C57.9854 88.7003 58.27 88.7105 58.27 88.7207C58.2802 88.802 58.2904 88.8834 58.2904 88.9749C58.2904 89.0664 58.2904 89.168 58.2802 89.2799C58.27 89.3917 58.27 89.4731 58.27 89.5341V89.5442C58.087 89.5849 57.843 89.6052 57.5278 89.6052C57.2126 89.6052 56.9584 89.6052 56.7653 89.6154H56.7449L56.7347 89.6256C56.7347 89.6561 56.7347 89.7679 56.7246 89.9713C56.7144 90.1746 56.7246 90.2865 56.7449 90.2966L56.7551 90.3068C56.8263 90.3068 56.8974 90.317 56.9788 90.317C57.0601 90.317 57.1415 90.317 57.2431 90.3271C57.3346 90.3271 57.416 90.3271 57.4668 90.3271V90.3373C57.4871 90.3576 57.4973 90.4797 57.4871 90.7237C57.477 90.9677 57.477 91.0999 57.477 91.1304C57.3956 91.1507 57.2736 91.1609 57.0906 91.1609C56.9076 91.1609 56.8059 91.171 56.7856 91.1914C56.7551 91.3541 56.7551 91.5981 56.7856 91.9133L56.7958 91.9234C56.9279 91.9234 57.1618 91.9336 57.4973 91.9438C57.8328 91.9539 58.0972 91.9641 58.3005 91.9539L58.2904 91.9336ZM61.0763 91.9336V91.9438C61.0966 92.2488 61.0864 92.503 61.0254 92.6962C60.8424 92.6962 60.5984 92.6962 60.273 92.7063C59.9477 92.7165 59.663 92.7165 59.3986 92.7165C59.1343 92.7165 58.9004 92.7063 58.6767 92.686C58.6767 92.3911 58.6767 91.9844 58.6666 91.4456C58.6564 90.9067 58.6564 90.4187 58.6564 89.9916C58.6564 89.5646 58.6666 89.1477 58.6869 88.7613C59.1343 88.741 59.6325 88.7207 60.2019 88.7105C60.7713 88.7003 61.0559 88.7105 61.0559 88.7207C61.0661 88.802 61.0763 88.8834 61.0763 88.9749C61.0763 89.0664 61.0763 89.168 61.0661 89.2799C61.0559 89.3917 61.0559 89.4731 61.0559 89.5341V89.5442C60.8729 89.5849 60.6289 89.6052 60.3137 89.6052C59.9985 89.6052 59.7443 89.6052 59.5512 89.6154H59.5308L59.5206 89.6256C59.5206 89.6561 59.5206 89.7679 59.5105 89.9713C59.5003 90.1746 59.5105 90.2865 59.5308 90.2966L59.541 90.3068C59.6122 90.3068 59.6833 90.317 59.7647 90.317C59.846 90.317 59.9273 90.317 60.029 90.3271C60.1205 90.3271 60.2019 90.3271 60.2527 90.3271V90.3373C60.273 90.3576 60.2832 90.4797 60.273 90.7237C60.2629 90.9677 60.2629 91.0999 60.2629 91.1304C60.1815 91.1507 60.0595 91.1609 59.8765 91.1609C59.6935 91.1609 59.5918 91.171 59.5715 91.1914C59.541 91.3541 59.541 91.5981 59.5715 91.9133L59.5817 91.9234C59.7138 91.9234 59.9477 91.9336 60.2832 91.9438C60.6187 91.9539 60.8831 91.9641 61.0864 91.9539L61.0763 91.9336ZM65.1941 90.8864L65.1738 92.7165C65.1026 92.7063 65.0213 92.7063 64.9298 92.7063C64.8383 92.7063 64.7366 92.7063 64.6247 92.7063C64.5129 92.7063 64.4417 92.7165 64.4112 92.7165C64.4112 92.6453 64.4011 92.32 64.3909 91.7404C64.3807 91.1609 64.3604 90.7338 64.3299 90.4898C64.3095 90.5305 64.2689 90.622 64.218 90.7643C64.1672 90.9067 64.1164 91.0389 64.0655 91.1507C64.0147 91.2626 63.9842 91.3236 63.974 91.3236C63.9537 91.3236 63.9435 91.3032 63.9232 91.2727C63.9028 91.2422 63.8825 91.2015 63.8622 91.1507C63.8418 91.0999 63.8215 91.049 63.791 90.988C63.7707 90.927 63.7503 90.8762 63.73 90.8152C63.7097 90.7643 63.6893 90.7033 63.6792 90.6627C63.6588 90.6118 63.6487 90.5813 63.6487 90.5508L63.6283 90.5102C63.5775 91.049 63.5877 91.7709 63.6487 92.686C63.5775 92.6962 63.4961 92.7063 63.4046 92.7063C63.3131 92.7063 63.2115 92.7063 63.0793 92.7063C62.9573 92.7063 62.8759 92.6962 62.8353 92.6962C62.8251 92.6962 62.8251 92.686 62.8149 92.6758C62.7946 92.5945 62.7946 91.2931 62.8048 88.7512C62.8251 88.7207 62.9471 88.7105 63.181 88.7207C63.4148 88.7308 63.547 88.7308 63.5877 88.7207H63.5978C63.6487 88.7817 63.7097 88.924 63.8012 89.1579C63.8825 89.3917 63.9435 89.5341 63.9842 89.5849C63.9944 89.5951 64.0045 89.6052 64.0147 89.6052C64.0249 89.6052 64.0452 89.5544 64.0859 89.4222C64.1265 89.3002 64.1672 89.1579 64.218 89.0054C64.2689 88.8529 64.3197 88.7512 64.3502 88.7003C64.4112 88.7003 64.4824 88.7003 64.5637 88.7003C64.6451 88.7003 64.7569 88.6902 64.8891 88.6902C65.0314 88.68 65.1331 88.68 65.1941 88.68C65.184 88.9139 65.184 89.2697 65.1941 89.7679C65.2043 90.2661 65.2043 90.622 65.184 90.8559L65.1941 90.8864ZM67.4411 90.6932L67.8682 92.7063V92.7165C67.6445 92.7673 67.3903 92.7572 67.0954 92.6962H67.0853C67.0548 92.625 67.0141 92.4725 66.9633 92.2386C66.9023 92.0048 66.8616 91.8421 66.8209 91.7608C66.8006 91.7404 66.7396 91.7404 66.6379 91.7506C66.5362 91.7608 66.4752 91.7608 66.4651 91.7608C66.4346 91.8319 66.3939 91.9844 66.3532 92.2285C66.3125 92.4725 66.2617 92.6352 66.2109 92.7165C66.2109 92.7165 66.2007 92.7165 66.1905 92.7267C66.1397 92.7267 66.099 92.7267 66.0685 92.7267C66.038 92.7267 65.9567 92.7267 65.8143 92.7165C65.672 92.7165 65.5296 92.7165 65.3873 92.7165C65.3873 92.7165 65.3771 92.7165 65.3771 92.7063C65.3771 92.6962 65.4178 92.4827 65.489 92.0556C65.5602 91.6286 65.672 91.0999 65.8042 90.4695C65.9465 89.8391 66.0889 89.2494 66.2515 88.7003C66.3024 88.6902 66.3431 88.6902 66.3736 88.6902C66.3939 88.6902 66.4651 88.6902 66.5769 88.6902C66.6887 88.6902 66.8209 88.68 66.9633 88.6698L67.431 90.7033L67.4411 90.6932ZM66.8514 91.0694C66.7599 90.2763 66.6887 89.8798 66.6379 89.8696C66.6176 89.8696 66.5972 89.9001 66.5769 89.9814C66.5667 90.0221 66.5159 90.3881 66.4244 91.0694H66.8514ZM68.9663 89.6663C68.9561 89.6866 68.9459 89.7883 68.9358 89.9916C68.9256 90.195 68.9154 90.4187 68.9154 90.6525C68.9154 90.8965 68.9154 91.11 68.9358 91.3032C68.9663 91.5981 69.0781 91.7811 69.2611 91.8319C69.4645 91.8523 69.5967 91.7811 69.6678 91.6286C69.6983 91.5574 69.7187 91.4557 69.7288 91.3236C69.7288 91.1914 69.739 91.0999 69.7492 91.0592C69.8 91.0694 69.9322 91.0694 70.1355 91.0694C70.3389 91.0694 70.4711 91.0795 70.5219 91.0999C70.5931 91.3744 70.6032 91.6388 70.5321 91.8828C70.4711 92.1268 70.3287 92.3403 70.1254 92.5132C69.9118 92.686 69.678 92.7775 69.4035 92.7775C69.3831 92.7775 69.312 92.7775 69.2103 92.7877C69.0984 92.7978 69.0374 92.7877 69.0171 92.7877C68.6816 92.747 68.4376 92.5742 68.2749 92.2488C68.224 92.137 68.1834 92.0048 68.1529 91.8624C68.1224 91.7099 68.1122 91.5981 68.102 91.5066C68.102 91.4151 68.0919 91.2829 68.0919 91.0999C68.0817 90.6525 68.0817 90.317 68.0919 90.0933C68.0919 90.073 68.0919 90.012 68.102 89.9204C68.102 89.8289 68.1122 89.7578 68.1122 89.7273C68.1122 89.6968 68.1224 89.6358 68.1224 89.5442C68.1325 89.4629 68.1325 89.4019 68.1529 89.3612C68.163 89.3206 68.1834 89.2697 68.2037 89.1985C68.224 89.1274 68.2444 89.0664 68.2749 89.0257C68.3054 88.985 68.3359 88.9342 68.3766 88.8834C68.4172 88.8325 68.4579 88.7918 68.5087 88.7613C68.7324 88.6088 68.9764 88.5377 69.2408 88.5478C69.5051 88.5478 69.7492 88.6292 69.9729 88.7613C70.2372 88.924 70.4202 89.1477 70.5321 89.4324C70.6439 89.7171 70.6439 90.0018 70.5524 90.2966C70.3491 90.3475 70.0644 90.3373 69.7187 90.2763C69.7085 90.2356 69.7085 90.1645 69.6983 90.0831C69.6983 89.9916 69.6882 89.9204 69.678 89.8696C69.6678 89.8188 69.6577 89.7578 69.6272 89.6866C69.6068 89.6256 69.5662 89.5747 69.5153 89.5442C69.4645 89.5137 69.3933 89.5036 69.312 89.5036C69.1595 89.5341 69.0578 89.5646 69.0273 89.5951C69.0171 89.6052 69.0069 89.6358 68.9968 89.6663H68.9663ZM70.7151 92.6352C70.8981 91.6591 71.2133 90.3475 71.6708 88.7105C71.681 88.7105 71.7318 88.7105 71.8132 88.7003C71.8945 88.6902 71.9657 88.6902 72.0267 88.6902C72.2504 88.6902 72.4131 88.7105 72.5046 88.741C72.8401 89.9509 73.0638 91.2524 73.1756 92.625V92.6352C73.1349 92.686 73.0028 92.7063 72.7791 92.7165C72.5554 92.7267 72.4131 92.7165 72.3622 92.6962C72.3521 92.6352 72.3419 92.4623 72.3317 92.1776C72.3215 91.8929 72.3012 91.5472 72.2504 91.1507C72.2097 90.744 72.1385 90.3678 72.0572 90.0018C71.9454 90.4492 71.8538 90.9575 71.7623 91.5371C71.6708 92.1166 71.5997 92.4928 71.5488 92.686C71.5488 92.6962 71.5488 92.6962 71.5387 92.6962C71.4471 92.6758 71.3048 92.6657 71.1218 92.6657C70.9388 92.6657 70.7964 92.6555 70.7151 92.6453V92.6352ZM75.6972 89.3104C75.7378 89.4019 75.7683 89.5137 75.7887 89.6663C75.809 89.8188 75.809 90.012 75.7988 90.2356C75.7887 90.3678 75.7887 90.561 75.7887 90.8152C75.7887 91.0694 75.7785 91.2727 75.7683 91.4049L75.748 91.5981C75.7277 91.9133 75.6565 92.1675 75.5345 92.3708C75.4226 92.5233 75.2193 92.6453 74.9448 92.7165C74.7516 92.7775 74.5381 92.7978 74.294 92.7775C74.111 92.7572 73.9484 92.7267 73.8162 92.6657C73.684 92.6047 73.5925 92.5132 73.5315 92.3708C73.4501 92.2285 73.3993 92.015 73.3891 91.7303C73.3891 91.6489 73.379 91.5066 73.3688 91.2931C73.3586 91.0795 73.3485 90.9169 73.3485 90.8152C73.3485 90.7033 73.3485 90.5712 73.3485 90.3983C73.3485 90.2255 73.3586 90.073 73.3586 89.9306C73.3688 89.5036 73.4705 89.1782 73.6637 88.9444C73.7145 88.8935 73.7552 88.863 73.7958 88.8427C74.0399 88.7207 74.3347 88.6597 74.6499 88.68C74.9753 88.7003 75.2396 88.7817 75.4531 88.9545C75.565 89.0562 75.6463 89.168 75.687 89.3002L75.6972 89.3104ZM75.0871 90.7135L75.0769 90.3271L75.0668 90.2661C75.0668 90.2356 75.0566 90.1848 75.0566 90.134C75.0566 90.0831 75.0464 90.0323 75.0464 89.9916C75.0261 89.7578 74.9244 89.5951 74.7516 89.5036C74.5991 89.4426 74.4567 89.4731 74.3042 89.5849C74.172 89.6968 74.0805 89.8289 74.0297 89.9814C73.9789 90.2356 73.9585 90.5508 73.9789 90.927C73.9789 90.9575 73.9992 91.0795 74.0094 91.2829C74.0297 91.4862 74.05 91.6388 74.0805 91.7404C74.1517 91.8929 74.2839 91.9743 74.4771 91.9946C74.6702 92.015 74.8228 91.9539 74.9448 91.8116C74.9753 91.7608 75.0058 91.7303 75.0159 91.6896C75.0363 91.6591 75.0363 91.6286 75.0464 91.6082C75.0464 91.5879 75.0464 91.5472 75.0566 91.4761C75.0566 91.4151 75.0566 91.3439 75.0668 91.2829C75.0668 91.2422 75.0668 91.1914 75.0668 91.1405C75.0668 91.0897 75.0668 91.049 75.0769 91.0287C75.0769 90.9982 75.0769 90.988 75.0769 90.9779V90.7033L75.0871 90.7135Z" fill="white"/>
<path d="M42.0734 91.1421L34.5088 90.6541L42.0734 90.166V91.1421Z" fill="white"/>
<path d="M77.0186 91.1421L84.5832 90.6541L77.0186 90.166V91.1421Z" fill="white"/>
<path fill-rule="evenodd" clip-rule="evenodd" d="M62.3675 31.7629C62.2963 31.5087 62.0726 31.407 61.8387 31.2139L56.7855 31.6816C56.6635 31.9764 56.45 32.1188 56.3076 32.251C58.0158 31.8748 60.1204 31.7832 62.3675 31.7629Z" fill="#FEFEFE"/>
<path fill-rule="evenodd" clip-rule="evenodd" d="M57.1727 32.9728L57.5286 32.9423L57.2642 32.4441C57.1524 32.4644 57.0406 32.4848 56.9287 32.5051L57.1829 32.983L57.1727 32.9728ZM57.8031 32.9118L59.1859 32.7796L59.2164 32.3221L59.3079 32.7695L59.8671 32.7186L59.8773 32.1899C59.2164 32.2204 58.647 32.2611 58.0471 32.3323L58.098 32.6881L57.9455 32.3526C57.8133 32.3729 57.6811 32.3831 57.5489 32.4034L57.8235 32.9118H57.8031ZM60.2535 32.678L60.6602 32.6373L60.7517 32.1492C60.6094 32.1492 60.4772 32.1594 60.3348 32.1696L60.2433 32.678H60.2535ZM61.0771 32.5966L61.4329 32.5661L61.6363 32.1289C61.5041 32.1289 61.3719 32.1391 61.2499 32.1391L61.0872 32.5966H61.0771Z" fill="#FEFEFE"/>
<path fill-rule="evenodd" clip-rule="evenodd" d="M62.3675 29.841C62.2963 29.5869 62.0726 29.4852 61.8387 29.292L56.7855 29.7597C56.6635 30.0546 56.45 30.1969 56.3076 30.3291C58.0158 29.9529 60.1204 29.8614 62.3675 29.841Z" fill="#FEFEFE"/>
<path fill-rule="evenodd" clip-rule="evenodd" d="M57.1727 31.0509L57.5286 31.0204L57.2642 30.5222C57.1524 30.5426 57.0406 30.5629 56.9287 30.5832L57.1829 31.0611L57.1727 31.0509ZM57.8031 30.9899L59.1859 30.8578L59.2164 30.4002L59.3079 30.8476L59.8671 30.7967L59.8773 30.268C59.2164 30.2985 58.647 30.3392 58.0471 30.4104L58.098 30.7662L57.9455 30.4307C57.8133 30.4511 57.6811 30.4612 57.5489 30.4816L57.8235 30.9899H57.8031ZM60.2535 30.7561L60.6602 30.7154L60.7517 30.2274C60.6094 30.2274 60.4772 30.2375 60.3348 30.2477L60.2433 30.7561H60.2535ZM61.0771 30.6747L61.4329 30.6442L61.6363 30.207C61.5041 30.207 61.3719 30.2172 61.2499 30.2172L61.0872 30.6747H61.0771Z" fill="#FEFEFE"/>
<path fill-rule="evenodd" clip-rule="evenodd" d="M62.3675 27.9201C62.2963 27.666 62.0726 27.5643 61.8387 27.3711L56.7855 27.8388C56.6635 28.1337 56.45 28.276 56.3076 28.4082C58.0158 28.032 60.1204 27.9405 62.3675 27.9201Z" fill="#FEFEFE"/>
<path fill-rule="evenodd" clip-rule="evenodd" d="M57.1727 29.13L57.5286 29.0995L57.2642 28.6013C57.1524 28.6217 57.0406 28.642 56.9287 28.6623L57.1829 29.1402L57.1727 29.13ZM57.8031 29.069L59.1859 28.9369L59.2164 28.4793L59.3079 28.9267L59.8671 28.8758L59.8773 28.3471C59.2164 28.3776 58.647 28.4183 58.0471 28.4895L58.098 28.8453L57.9455 28.5098C57.8133 28.5302 57.6811 28.5403 57.5489 28.5607L57.8235 29.069H57.8031ZM60.2535 28.8352L60.6602 28.7945L60.7517 28.3065C60.6094 28.3065 60.4772 28.3166 60.3348 28.3268L60.2433 28.8352H60.2535ZM61.0771 28.7538L61.4329 28.7233L61.6363 28.2861C61.5041 28.2861 61.3719 28.2963 61.2499 28.2963L61.0872 28.7538H61.0771Z" fill="#FEFEFE"/>
<path fill-rule="evenodd" clip-rule="evenodd" d="M62.3675 25.9983C62.2963 25.7441 62.0726 25.6424 61.8387 25.4492L56.7855 25.9169C56.6635 26.2118 56.45 26.3541 56.3076 26.4863C58.0158 26.1101 60.1204 26.0186 62.3675 25.9983Z" fill="#FEFEFE"/>
<path fill-rule="evenodd" clip-rule="evenodd" d="M57.1727 27.2179L57.5286 27.1874L57.2642 26.6892C57.1524 26.7096 57.0406 26.7299 56.9287 26.7502L57.1829 27.2281L57.1727 27.2179ZM57.8031 27.1569L59.1859 27.0247L59.2164 26.5672L59.3079 27.0146L59.8671 26.9637L59.8773 26.435C59.2164 26.4655 58.647 26.5062 58.0471 26.5774L58.098 26.9332L57.9455 26.5977C57.8133 26.618 57.6811 26.6282 57.5489 26.6485L57.8235 27.1569H57.8031ZM60.2535 26.9231L60.6602 26.8824L60.7517 26.3944C60.6094 26.3944 60.4772 26.4045 60.3348 26.4147L60.2433 26.9231H60.2535ZM61.0771 26.8417L61.4329 26.8112L61.6363 26.374C61.5041 26.374 61.3719 26.3842 61.2499 26.3842L61.0872 26.8417H61.0771Z" fill="#FEFEFE"/>
<path fill-rule="evenodd" clip-rule="evenodd" d="M62.3675 16.3996C62.2963 16.1454 62.0726 16.0438 61.8387 15.8506L56.7855 16.3183C56.6635 16.6131 56.45 16.7555 56.3076 16.8877C58.0158 16.5115 60.1204 16.42 62.3675 16.3996Z" fill="#FEFEFE"/>
<path fill-rule="evenodd" clip-rule="evenodd" d="M62.3277 35.5054C62.2362 35.3224 62.043 35.2207 61.8397 35.0479L57.0508 35.4952C57.8032 35.4749 58.5657 35.4749 59.3283 35.4952C60.3349 35.4749 61.3313 35.4749 62.3176 35.5054H62.3277Z" fill="#FEFEFE"/>
<path fill-rule="evenodd" clip-rule="evenodd" d="M62.3675 33.675C62.2963 33.4208 62.0726 33.3192 61.8387 33.126L56.7855 33.5937C56.6635 33.8885 56.45 34.0309 56.3076 34.1631C58.0158 33.7869 60.1204 33.6954 62.3675 33.675Z" fill="#FEFEFE"/>
<path fill-rule="evenodd" clip-rule="evenodd" d="M57.1727 34.8957L57.5286 34.8652L57.2642 34.367C57.1524 34.3873 57.0406 34.4076 56.9287 34.428L57.1829 34.9058L57.1727 34.8957ZM57.8031 34.8347L59.1859 34.7025L59.2164 34.2449L59.3079 34.6923L59.8671 34.6415L59.8773 34.1128C59.2164 34.1433 58.647 34.1839 58.0471 34.2551L58.098 34.611L57.9455 34.2754C57.8133 34.2958 57.6811 34.3059 57.5489 34.3263L57.8235 34.8347H57.8031ZM60.2535 34.6008L60.6602 34.5601L60.7517 34.0721C60.6094 34.0721 60.4772 34.0823 60.3348 34.0924L60.2433 34.6008H60.2535ZM61.0771 34.5195L61.4329 34.489L61.6363 34.0518C61.5041 34.0518 61.3719 34.0619 61.2499 34.0619L61.0872 34.5195H61.0771Z" fill="#FEFEFE"/>
<path fill-rule="evenodd" clip-rule="evenodd" d="M57.1727 17.6203L57.5286 17.5898L57.2642 17.0916C57.1524 17.1119 57.0406 17.1322 56.9287 17.1526L57.1829 17.6304L57.1727 17.6203ZM57.8031 17.5593L59.1859 17.4271L59.2164 16.9695L59.3079 17.4169L59.8671 17.3661L59.8773 16.8374C59.2164 16.8679 58.647 16.9085 58.0471 16.9797L58.098 17.3356L57.9455 17.0001C57.8133 17.0204 57.6811 17.0306 57.5489 17.0509L57.8235 17.5593H57.8031ZM60.2535 17.3254L60.6602 17.2847L60.7517 16.7967C60.6094 16.7967 60.4772 16.8069 60.3348 16.817L60.2433 17.3254H60.2535ZM61.0771 17.2441L61.4329 17.2136L61.6363 16.7764C61.5041 16.7764 61.3719 16.7865 61.2499 16.7865L61.0872 17.2441H61.0771Z" fill="#FEFEFE"/>
<path fill-rule="evenodd" clip-rule="evenodd" d="M62.3675 14.4885C62.2963 14.2343 62.0726 14.1326 61.8387 13.9395L56.7855 14.4072C56.6635 14.702 56.45 14.8444 56.3076 14.9765C58.0158 14.6003 60.1204 14.5088 62.3675 14.4885Z" fill="#FEFEFE"/>
<path fill-rule="evenodd" clip-rule="evenodd" d="M57.1727 15.6984L57.5286 15.6679L57.2642 15.1697C57.1524 15.19 57.0406 15.2104 56.9287 15.2307L57.1829 15.7086L57.1727 15.6984ZM57.8031 15.6374L59.1859 15.5052L59.2164 15.0477L59.3079 15.495L59.8671 15.4442L59.8773 14.9155C59.2164 14.946 58.647 14.9867 58.0471 15.0578L58.098 15.4137L57.9455 15.0782C57.8133 15.0985 57.6811 15.1087 57.5489 15.129L57.8235 15.6374H57.8031ZM60.2535 15.4035L60.6602 15.3629L60.7517 14.8748C60.6094 14.8748 60.4772 14.885 60.3348 14.8952L60.2433 15.4035H60.2535ZM61.0771 15.3222L61.4329 15.2917L61.6363 14.8545C61.5041 14.8545 61.3719 14.8647 61.2499 14.8647L61.0872 15.3222H61.0771Z" fill="#FEFEFE"/>
<path fill-rule="evenodd" clip-rule="evenodd" d="M57.1727 13.7765L57.5286 13.746L57.2642 13.2478C57.1524 13.2681 57.0406 13.2885 56.9287 13.3088L57.1829 13.7867L57.1727 13.7765ZM57.8031 13.7155L59.1859 13.5833L59.2164 13.1258L59.3079 13.5732L59.8671 13.5223L59.8773 12.9936C59.2164 13.0241 58.647 13.0648 58.0471 13.136L58.098 13.4918L57.9455 13.1563C57.8133 13.1766 57.6811 13.1868 57.5489 13.2071L57.8235 13.7155H57.8031ZM60.2535 13.4817L60.6602 13.441L60.7517 12.953C60.6094 12.953 60.4772 12.9631 60.3348 12.9733L60.2433 13.4817H60.2535ZM61.0771 13.4003L61.4329 13.3698L61.6363 12.9326C61.5041 12.9326 61.3719 12.9428 61.2499 12.9428L61.0872 13.4003H61.0771Z" fill="#FEFEFE"/>
<path fill-rule="evenodd" clip-rule="evenodd" d="M62.3675 24.0764C62.2963 23.8222 62.0726 23.7205 61.8387 23.5273L56.7855 23.995C56.6635 24.2899 56.45 24.4323 56.3076 24.5644C58.0158 24.1882 60.1204 24.0967 62.3675 24.0764Z" fill="#FEFEFE"/>
<path fill-rule="evenodd" clip-rule="evenodd" d="M57.1727 25.297L57.5286 25.2665L57.2642 24.7683C57.1524 24.7887 57.0406 24.809 56.9287 24.8293L57.1829 25.3072L57.1727 25.297ZM57.8031 25.236L59.1859 25.1038L59.2164 24.6463L59.3079 25.0937L59.8671 25.0428L59.8773 24.5141C59.2164 24.5446 58.647 24.5853 58.0471 24.6565L58.098 25.0123L57.9455 24.6768C57.8133 24.6971 57.6811 24.7073 57.5489 24.7276L57.8235 25.236H57.8031ZM60.2535 25.0022L60.6602 24.9615L60.7517 24.4735C60.6094 24.4735 60.4772 24.4836 60.3348 24.4938L60.2433 25.0022H60.2535ZM61.0771 24.9208L61.4329 24.8903L61.6363 24.4531C61.5041 24.4531 61.3719 24.4633 61.2499 24.4633L61.0872 24.9208H61.0771Z" fill="#FEFEFE"/>
<path fill-rule="evenodd" clip-rule="evenodd" d="M62.3675 22.1653C62.2963 21.9111 62.0726 21.8094 61.8387 21.6162L56.7855 22.0839C56.6635 22.3788 56.45 22.5211 56.3076 22.6533C58.0158 22.2771 60.1204 22.1856 62.3675 22.1653Z" fill="#FEFEFE"/>
<path fill-rule="evenodd" clip-rule="evenodd" d="M57.1727 23.3752L57.5286 23.3447L57.2642 22.8464C57.1524 22.8668 57.0406 22.8871 56.9287 22.9074L57.1829 23.3853L57.1727 23.3752ZM57.8031 23.3141L59.1859 23.182L59.2164 22.7244L59.3079 23.1718L59.8671 23.121L59.8773 22.5923C59.2164 22.6228 58.647 22.6634 58.0471 22.7346L58.098 23.0905L57.9455 22.7549C57.8133 22.7753 57.6811 22.7854 57.5489 22.8058L57.8235 23.3141H57.8031ZM60.2535 23.0803L60.6602 23.0396L60.7517 22.5516C60.6094 22.5516 60.4772 22.5618 60.3348 22.5719L60.2433 23.0803H60.2535ZM61.0771 22.999L61.4329 22.9685L61.6363 22.5312C61.5041 22.5312 61.3719 22.5414 61.2499 22.5414L61.0872 22.999H61.0771Z" fill="#FEFEFE"/>
<path fill-rule="evenodd" clip-rule="evenodd" d="M62.3675 20.2434C62.2963 19.9892 62.0726 19.8875 61.8387 19.6943L56.7855 20.162C56.6635 20.4569 56.45 20.5992 56.3076 20.7314C58.0158 20.3552 60.1204 20.2637 62.3675 20.2434Z" fill="#FEFEFE"/>
<path fill-rule="evenodd" clip-rule="evenodd" d="M57.1727 21.4543L57.5286 21.4238L57.2642 20.9255C57.1524 20.9459 57.0406 20.9662 56.9287 20.9865L57.1829 21.4644L57.1727 21.4543ZM57.8031 21.3933L59.1859 21.2611L59.2164 20.8035L59.3079 21.2509L59.8671 21.2001L59.8773 20.6714C59.2164 20.7019 58.647 20.7425 58.0471 20.8137L58.098 21.1696L57.9455 20.834C57.8133 20.8544 57.6811 20.8645 57.5489 20.8849L57.8235 21.3933H57.8031ZM60.2535 21.1594L60.6602 21.1187L60.7517 20.6307C60.6094 20.6307 60.4772 20.6409 60.3348 20.651L60.2433 21.1594H60.2535ZM61.0771 21.0781L61.4329 21.0476L61.6363 20.6104C61.5041 20.6104 61.3719 20.6205 61.2499 20.6205L61.0872 21.0781H61.0771Z" fill="#FEFEFE"/>
<path fill-rule="evenodd" clip-rule="evenodd" d="M62.3675 18.3215C62.2963 18.0673 62.0726 17.9656 61.8387 17.7725L56.7855 18.2402C56.6635 18.535 56.45 18.6774 56.3076 18.8095C58.0158 18.4333 60.1204 18.3418 62.3675 18.3215Z" fill="#FEFEFE"/>
<path fill-rule="evenodd" clip-rule="evenodd" d="M57.1727 19.5412L57.5286 19.5107L57.2642 19.0125C57.1524 19.0328 57.0406 19.0531 56.9287 19.0735L57.1829 19.5513L57.1727 19.5412ZM57.8031 19.4802L59.1859 19.348L59.2164 18.8904L59.3079 19.3378L59.8671 19.287L59.8773 18.7583C59.2164 18.7888 58.647 18.8294 58.0471 18.9006L58.098 19.2565L57.9455 18.921C57.8133 18.9413 57.6811 18.9515 57.5489 18.9718L57.8235 19.4802H57.8031ZM60.2535 19.2463L60.6602 19.2056L60.7517 18.7176C60.6094 18.7176 60.4772 18.7278 60.3348 18.7379L60.2433 19.2463H60.2535ZM61.0771 19.165L61.4329 19.1345L61.6363 18.6973C61.5041 18.6973 61.3719 18.7074 61.2499 18.7074L61.0872 19.165H61.0771Z" fill="#FEFEFE"/>
<path fill-rule="evenodd" clip-rule="evenodd" d="M62.5092 5.00242V2.23685V1.73864C62.5092 0.965914 62.5905 0.559213 62.011 0.376198V6.59872C62.1127 6.64955 62.1737 6.70039 62.2245 6.77156C62.5702 6.54788 62.5092 6.16151 62.5092 5.50063V5.00242ZM61.3704 6.4157V0.213518C61.2688 0.193183 61.1569 0.172848 61.0552 0.152513V6.3547C61.1569 6.37503 61.2688 6.39537 61.3704 6.4157ZM60.1503 6.22252V0.0305025C59.9775 0.020335 59.8046 0.0101675 59.6318 0V6.19202C59.8046 6.19202 59.9775 6.20218 60.1503 6.22252ZM59.0014 6.20218V0.0101675C58.8184 0.020335 58.6354 0.0305025 58.4524 0.0508376V6.25302C58.6354 6.23269 58.8184 6.21235 59.0014 6.20218ZM58.1372 6.29369V0.0915076C57.8016 0.142345 57.4661 0.213518 57.1306 0.305025V6.51738C57.4661 6.4157 57.8016 6.34453 58.1372 6.29369ZM56.8154 6.62922V0.396533C56.307 0.579548 56.4087 0.803234 56.4087 1.40312V2.21652V4.98208V5.79548C56.4087 6.32419 56.3375 6.55805 56.6527 6.73089C56.6934 6.69022 56.7442 6.64955 56.8154 6.60888V6.62922Z" fill="#FEFEFE"/>
<path fill-rule="evenodd" clip-rule="evenodd" d="M57.2947 10.229V7.00585C56.8982 7.1482 56.9795 7.34138 56.9795 7.82942V10.2696L57.2947 10.2391V10.229ZM58.83 10.0764V6.69066C58.3827 6.73133 57.9251 6.81267 57.4676 6.94485V10.2086L58.83 10.0764ZM59.3892 10.0256V6.66016C59.2571 6.66016 59.1249 6.67032 59.0029 6.67032V10.0561L59.3892 10.0154V10.0256ZM60.1925 9.94426V6.70083C60.0603 6.69066 59.9281 6.68049 59.8061 6.67032V9.98493L60.1925 9.94426ZM61.0669 9.86292V6.84317C61.0059 6.833 60.9347 6.81267 60.8737 6.8025V9.88326L61.0669 9.86292ZM61.9515 9.77142V8.07344C61.9515 7.47356 62.0125 7.1482 61.6159 6.98552V9.80192L61.9515 9.77142Z" fill="#FEFEFE"/>
<path fill-rule="evenodd" clip-rule="evenodd" d="M62.3675 12.5676C62.2963 12.3134 62.0726 12.2117 61.8387 12.0186L56.7855 12.4863C56.6635 12.7811 56.45 12.9235 56.3076 13.0556C58.0158 12.6794 60.1204 12.5879 62.3675 12.5676Z" fill="#FEFEFE"/>
<path fill-rule="evenodd" clip-rule="evenodd" d="M62.3675 10.6457C62.2963 10.3915 62.0726 10.2899 61.8387 10.0967L56.7855 10.5644C56.6635 10.8592 56.45 11.0016 56.3076 11.1338C58.0158 10.7576 60.1204 10.6661 62.3675 10.6457Z" fill="#FEFEFE"/>
<path fill-rule="evenodd" clip-rule="evenodd" d="M57.1727 11.8556L57.5286 11.8251L57.2642 11.3269C57.1524 11.3472 57.0406 11.3676 56.9287 11.3879L57.1829 11.8658L57.1727 11.8556ZM57.8031 11.7946L59.1859 11.6624L59.2164 11.2049L59.3079 11.6523L59.8671 11.6014L59.8773 11.0727C59.2164 11.1032 58.647 11.1439 58.0471 11.2151L58.098 11.5709L57.9455 11.2354C57.8133 11.2557 57.6811 11.2659 57.5489 11.2862L57.8235 11.7946H57.8031ZM60.2535 11.5608L60.6602 11.5201L60.7517 11.0321C60.6094 11.0321 60.4772 11.0422 60.3348 11.0524L60.2433 11.5608H60.2535ZM61.0771 11.4794L61.4329 11.4489L61.6363 11.0117C61.5041 11.0117 61.3719 11.0219 61.2499 11.0219L61.0872 11.4794H61.0771Z" fill="#FEFEFE"/>
</svg>
